<?xml version="1.0" encoding="iso-8859-1"?>
<!-- Generator: Adobe Illustrator 16.0.0, SVG Export Plug-In . SVG Version: 6.00 Build 0)  -->
<!DOCTYPE svg PUBLIC "-//W3C//DTD SVG 1.1//EN" "http://www.w3.org/Graphics/SVG/1.1/DTD/svg11.dtd">
<svg version="1.1" id="Layer_1" xmlns="http://www.w3.org/2000/svg" xmlns:xlink="http://www.w3.org/1999/xlink" x="0px" y="0px"
	 width="255.745px" height="175.96px" viewBox="0 0 255.745 175.96" style="enable-background:new 0 0 255.745 175.96;"
	 xml:space="preserve">
<g>
	<path style="fill:#450000;" d="M135.407,2.525c-2.086-2.005-4.871-2.787-7.534-2.448c-2.664-0.339-5.448,0.443-7.531,2.448
		L2.824,115.446c-3.663,3.518-3.775,9.336-0.26,12.996c1.803,1.877,4.216,2.82,6.626,2.82c2.292,0,4.586-0.851,6.37-2.563
		L127.867,20.78l75.455,72.293c7.024-0.509,13.77-2.82,19.63-6.631L135.407,2.525z"/>
	<path style="fill:#450000;" d="M252.922,115.446l-18.389-17.465c-2.904,4.83-6.354,10.124-10.254,15.644l15.902,15.075
		c1.782,1.712,4.075,2.563,6.367,2.563c2.413,0,4.825-0.943,6.628-2.82C256.699,124.782,256.583,118.963,252.922,115.446z"/>
	<path style="fill:#66A320;" d="M87.992,132.733c-5.435-15.975-27.67-16.85-44.36-15.684c6.438,21.87,25.578,50.802,50.917,53.309
		C81.306,154.774,87.992,132.733,87.992,132.733z"/>
	<path style="fill:#66A320;" d="M87.807,128.628c10.008-24.728,31.161-35.217,44.342-37.706c-1.663-6.14-13.17-15.935-17.241-22.264
		c-3.729-5.777-8.333-15.216-7.688-25.752C96.962,50.037,73.554,103.144,87.807,128.628z"/>
	<path style="fill:#66A320;" d="M234.955,86.989c-1.005,0.791-2.05,1.52-3.114,2.213c-5.856,3.812-12.605,6.12-19.63,6.629
		c-0.534,0.044-1.058,0.106-1.591,0.118c-41.32,1.359-84.276-18.287-110.937,27.11c-4.777,8.135-7.968,20.797-6.04,31.461
		c8.274-12.97,25.271-33.832,58.046-41.463c7.861-1.968,42.13-4.99,57.574-8.763l8.885-2.606
		c-4.901,8.126-51.949,13.637-66.205,17.933c-23.855,7.013-46.61,33.766-54.053,45.323c2.12,2.91,4.999,5.308,8.818,6.892
		c42.563,18.425,89.717-28.69,116.039-65.877c3.9-5.517,7.348-10.811,10.251-15.641C233.683,89.179,234.334,88.068,234.955,86.989z"
		/>
</g>
</svg>
