<?xml version="1.0" encoding="iso-8859-1"?>
<!-- Generator: Adobe Illustrator 16.0.0, SVG Export Plug-In . SVG Version: 6.00 Build 0)  -->
<!DOCTYPE svg PUBLIC "-//W3C//DTD SVG 1.1//EN" "http://www.w3.org/Graphics/SVG/1.1/DTD/svg11.dtd">
<svg version="1.1" id="Layer_1" xmlns="http://www.w3.org/2000/svg" xmlns:xlink="http://www.w3.org/1999/xlink" x="0px" y="0px"
	 width="757px" height="268px" viewBox="0 0 757 268" style="enable-background:new 0 0 757 268;" xml:space="preserve">
<g>
	<g>
		<path style="fill:#450000;" d="M46.117,259.88c-2.514,1.196-8.5,3.711-16.88,3.711c-16.521,0-27.536-12.092-27.536-29.332
			c0-18.316,12.451-30.648,29.571-30.648c7.063,0,12.93,2.036,15.085,3.592l-2.036,4.669c-2.753-1.676-7.183-3.352-13.528-3.352
			c-15.444,0-23.345,11.732-23.345,25.261c0,15.085,9.458,24.902,22.747,24.902c6.824,0,11.254-1.916,14.367-3.353L46.117,259.88z"
			/>
		<path style="fill:#450000;" d="M95.681,248.746c0,4.55,0.12,9.219,0.838,13.648h-5.268l-0.838-8.261h-0.239
			c-2.874,4.43-9.219,9.578-18.437,9.578c-11.613,0-16.881-8.142-16.881-15.804c0-13.289,11.613-21.311,35.078-21.07v-1.557
			c0-5.627-1.077-17-14.726-16.881c-5.028,0-10.296,1.317-14.486,4.311l-1.796-4.19c5.268-3.472,11.732-4.909,16.88-4.909
			c16.641,0,19.874,12.451,19.874,22.628V248.746z M89.935,231.625c-12.57-0.358-29.092,1.557-29.092,15.324
			c0,8.261,5.507,11.973,11.493,11.973c9.578,0,15.084-5.866,17-11.493c0.479-1.197,0.599-2.515,0.599-3.472V231.625z"/>
		<path style="fill:#450000;" d="M111.843,254.852c3.113,1.915,7.782,3.95,12.93,3.95c9.099,0,13.409-4.908,13.409-10.895
			c0-6.345-3.831-9.697-12.092-13.05c-9.458-3.591-14.606-8.739-14.606-15.683c0-8.381,6.584-15.564,17.719-15.564
			c5.268,0,9.817,1.557,12.69,3.592l-2.155,4.669c-2.035-1.437-5.747-3.472-11.493-3.472c-7.303,0-11.134,4.669-11.134,9.938
			c0,5.985,4.07,8.5,11.852,11.732c9.338,3.711,14.845,8.38,14.845,17.12c0,9.816-7.662,16.401-19.395,16.401
			c-5.507,0-10.775-1.557-14.606-3.951L111.843,254.852z"/>
		<path style="fill:#450000;" d="M194.688,248.746c0,4.55,0.12,9.219,0.838,13.648h-5.268l-0.838-8.261h-0.239
			c-2.874,4.43-9.219,9.578-18.437,9.578c-11.613,0-16.881-8.142-16.881-15.804c0-13.289,11.613-21.311,35.078-21.07v-1.557
			c0-5.627-1.077-17-14.726-16.881c-5.028,0-10.296,1.317-14.486,4.311l-1.795-4.19c5.268-3.472,11.732-4.909,16.88-4.909
			c16.641,0,19.874,12.451,19.874,22.628V248.746z M188.941,231.625c-12.57-0.358-29.092,1.557-29.092,15.324
			c0,8.261,5.507,11.973,11.493,11.973c9.578,0,15.084-5.866,17-11.493c0.479-1.197,0.599-2.515,0.599-3.472V231.625z"/>
		<path style="fill:#66A320;" d="M213.124,177.273h5.747v38.43h0.239c3.831-7.422,10.895-12.092,21.071-12.092
			c14.486,0,24.543,12.212,24.543,29.452c0,20.472-13.05,30.648-25.62,30.648c-9.338,0-16.042-3.831-20.592-11.613h-0.239
			l-0.479,10.296h-5.148c0.359-4.07,0.479-9.099,0.479-13.408V177.273z M218.87,240.246c0,1.317,0.12,2.754,0.479,4.19
			c2.514,8.739,9.937,14.486,18.916,14.486c13.169,0,20.712-10.775,20.712-25.74c0-13.169-7.183-24.782-20.233-24.782
			c-8.38,0-16.402,5.747-19.155,15.324c-0.359,1.437-0.718,2.993-0.718,5.028V240.246z"/>
		<path style="fill:#66A320;" d="M281.961,193.435c-2.634,0-4.43-2.274-4.43-4.908s2.036-5.028,4.669-5.028s4.549,2.274,4.549,5.028
			c0,2.634-1.796,4.908-4.669,4.908H281.961z M279.327,262.394v-57.466h5.747v57.466H279.327z"/>
		<path style="fill:#66A320;" d="M325.898,263.711c-14.845,0-26.338-11.613-26.338-29.571c0-19.635,12.93-30.529,27.176-30.529
			c15.923,0,26.698,11.973,26.698,29.571c0,21.311-14.726,30.529-27.416,30.529H325.898z M326.257,258.922
			c11.972,0,21.43-10.775,21.43-25.501c0-10.535-5.866-25.021-21.071-25.021c-14.726,0-21.31,13.05-21.31,25.381
			c0,14.366,9.099,25.142,20.831,25.142H326.257z"/>
		<path style="fill:#66A320;" d="M408.385,260.239c-2.753,1.437-8.859,3.353-16.641,3.353c-17.479,0-28.853-11.853-28.853-29.571
			c0-17.838,12.211-30.768,31.127-30.768c6.226,0,11.732,1.556,14.605,2.993l-2.395,8.141c-2.514-1.437-6.465-2.754-12.211-2.754
			c-13.289,0-20.473,9.817-20.473,21.909c0,13.408,8.62,21.669,20.113,21.669c5.986,0,9.937-1.556,12.93-2.873L408.385,260.239z"/>
		<path style="fill:#66A320;" d="M452.801,262.394l-0.838-7.303h-0.358c-3.232,4.549-9.458,8.62-17.719,8.62
			c-11.733,0-17.719-8.261-17.719-16.642c0-14.007,12.451-21.669,34.839-21.55v-1.197c0-4.789-1.317-13.408-13.17-13.408
			c-5.387,0-11.014,1.676-15.085,4.31l-2.394-6.943c4.788-3.113,11.732-5.148,19.035-5.148c17.719,0,22.028,12.092,22.028,23.705
			v21.669c0,5.028,0.239,9.937,0.958,13.888H452.801z M451.246,232.823c-11.493-0.239-24.543,1.796-24.543,13.05
			c0,6.824,4.55,10.057,9.937,10.057c7.543,0,12.331-4.789,14.008-9.697c0.359-1.078,0.599-2.274,0.599-3.353V232.823z"/>
		<path style="fill:#66A320;" d="M476.984,251.62c3.113,2.035,8.62,4.189,13.888,4.189c7.662,0,11.254-3.831,11.254-8.619
			c0-5.028-2.993-7.782-10.775-10.655c-10.415-3.712-15.324-9.458-15.324-16.402c0-9.338,7.543-17,19.994-17
			c5.866,0,11.014,1.676,14.246,3.592l-2.634,7.662c-2.274-1.437-6.465-3.353-11.853-3.353c-6.225,0-9.697,3.592-9.697,7.901
			c0,4.789,3.473,6.944,11.015,9.817c10.057,3.831,15.204,8.859,15.204,17.479c0,10.176-7.901,17.359-21.669,17.359
			c-6.346,0-12.212-1.557-16.282-3.951L476.984,251.62z"/>
		<path style="fill:#66A320;" d="M557.915,262.394l-0.838-7.303h-0.358c-3.232,4.549-9.458,8.62-17.719,8.62
			c-11.733,0-17.719-8.261-17.719-16.642c0-14.007,12.451-21.669,34.839-21.55v-1.197c0-4.789-1.317-13.408-13.17-13.408
			c-5.387,0-11.014,1.676-15.085,4.31l-2.394-6.943c4.788-3.113,11.732-5.148,19.035-5.148c17.719,0,22.028,12.092,22.028,23.705
			v21.669c0,5.028,0.239,9.937,0.958,13.888H557.915z M556.359,232.823c-11.493-0.239-24.543,1.796-24.543,13.05
			c0,6.824,4.55,10.057,9.937,10.057c7.543,0,12.331-4.789,14.008-9.697c0.359-1.078,0.599-2.274,0.599-3.353V232.823z"/>
		<path style="fill:#450000;" d="M583.534,220.132c0-5.985-0.119-10.895-0.479-15.683h9.219l0.479,9.338h0.359
			c3.232-5.507,8.62-10.655,18.197-10.655c7.901,0,13.888,4.789,16.401,11.613h0.24c1.796-3.232,4.07-5.747,6.465-7.543
			c3.472-2.634,7.303-4.07,12.81-4.07c7.662,0,19.036,5.028,19.036,25.142v34.12h-10.296V229.59
			c0-11.134-4.071-17.838-12.571-17.838c-5.985,0-10.655,4.43-12.451,9.577c-0.479,1.437-0.838,3.353-0.838,5.268v35.797h-10.296
			v-34.719c0-9.219-4.07-15.923-12.092-15.923c-6.584,0-11.373,5.268-13.049,10.535c-0.599,1.557-0.839,3.353-0.839,5.148v34.958
			h-10.296V220.132z"/>
		<path style="fill:#450000;" d="M695.114,188.167c0.119,3.592-2.515,6.465-6.705,6.465c-3.711,0-6.345-2.873-6.345-6.465
			c0-3.712,2.753-6.585,6.584-6.585C692.599,181.583,695.114,184.456,695.114,188.167z M683.38,262.394V204.45h10.536v57.944H683.38
			z"/>
		<path style="fill:#450000;" d="M743.479,262.394l-0.838-7.303h-0.358c-3.232,4.549-9.458,8.62-17.719,8.62
			c-11.733,0-17.719-8.261-17.719-16.642c0-14.007,12.451-21.669,34.839-21.55v-1.197c0-4.789-1.317-13.408-13.17-13.408
			c-5.387,0-11.014,1.676-15.085,4.31l-2.394-6.943c4.788-3.113,11.732-5.148,19.035-5.148c17.719,0,22.028,12.092,22.028,23.705
			v21.669c0,5.028,0.239,9.937,0.958,13.888H743.479z M741.923,232.823c-11.493-0.239-24.543,1.796-24.543,13.05
			c0,6.824,4.55,10.057,9.937,10.057c7.543,0,12.331-4.789,14.008-9.697c0.359-1.078,0.599-2.274,0.599-3.353V232.823z"/>
	</g>
	<g>
		<path style="fill:#450000;" d="M386.105,4.226c-2.086-2.005-4.871-2.787-7.534-2.448c-2.664-0.339-5.448,0.443-7.531,2.448
			L253.522,117.147c-3.663,3.518-3.775,9.336-0.26,12.996c1.803,1.877,4.216,2.82,6.626,2.82c2.292,0,4.586-0.851,6.37-2.563
			l112.307-107.92l75.455,72.293c7.024-0.509,13.77-2.82,19.63-6.631L386.105,4.226z"/>
		<path style="fill:#450000;" d="M503.621,117.147l-18.389-17.465c-2.904,4.83-6.354,10.124-10.254,15.644l15.902,15.075
			c1.782,1.712,4.075,2.563,6.367,2.563c2.413,0,4.825-0.943,6.628-2.82C507.397,126.483,507.282,120.665,503.621,117.147z"/>
		<path style="fill:#66A320;" d="M338.69,134.434c-5.435-15.975-27.67-16.85-44.36-15.684c6.438,21.87,25.578,50.802,50.917,53.309
			C332.004,156.475,338.69,134.434,338.69,134.434z"/>
		<path style="fill:#66A320;" d="M338.505,130.33c10.008-24.728,31.161-35.217,44.342-37.706
			c-1.663-6.14-13.17-15.935-17.241-22.264c-3.729-5.777-8.333-15.216-7.688-25.752C347.66,51.738,324.252,104.845,338.505,130.33z"
			/>
		<path style="fill:#66A320;" d="M485.653,88.69c-1.005,0.791-2.05,1.52-3.114,2.213c-5.856,3.812-12.605,6.12-19.63,6.629
			c-0.534,0.044-1.058,0.106-1.591,0.118c-41.32,1.359-84.276-18.287-110.937,27.11c-4.777,8.135-7.968,20.797-6.04,31.461
			c8.274-12.97,25.271-33.832,58.046-41.463c7.861-1.968,42.13-4.99,57.574-8.763l8.885-2.606
			c-4.901,8.126-51.949,13.637-66.205,17.933c-23.855,7.013-46.61,33.766-54.053,45.323c2.12,2.91,4.999,5.308,8.818,6.892
			c42.563,18.425,89.717-28.69,116.039-65.877c3.9-5.517,7.348-10.811,10.251-15.641C484.381,90.88,485.033,89.769,485.653,88.69z"
			/>
	</g>
</g>
</svg>
