<?xml version="1.0" encoding="utf-8"?>
<!-- Generator: Adobe Illustrator 27.0.0, SVG Export Plug-In . SVG Version: 6.00 Build 0)  -->
<svg version="1.1" id="Livello_1" xmlns="http://www.w3.org/2000/svg" xmlns:xlink="http://www.w3.org/1999/xlink" x="0px" y="0px"
	 viewBox="0 0 220 50" style="enable-background:new 0 0 220 50;" xml:space="preserve">
<style type="text/css">
	.st0{fill:#450000;}
	.st1{fill:#66A320;}
</style>
<g>
	<path class="st0" d="M36.3,4.7c-0.5-0.5-1.2-0.7-1.8-0.6c-0.6-0.1-1.3,0.1-1.8,0.6L4.8,31.5c-0.9,0.8-0.9,2.2-0.1,3.1
		c0.4,0.4,1,0.7,1.6,0.7c0.5,0,1.1-0.2,1.5-0.6L34.5,9l17.9,17.2c1.7-0.1,3.3-0.7,4.7-1.6L36.3,4.7z"/>
	<path class="st0" d="M64.2,31.5l-4.4-4.1c-0.7,1.1-1.5,2.4-2.4,3.7l3.8,3.6c0.4,0.4,1,0.6,1.5,0.6c0.6,0,1.1-0.2,1.6-0.7
		C65.1,33.7,65.1,32.4,64.2,31.5z"/>
	<path class="st1" d="M25.1,35.6c-1.3-3.8-6.6-4-10.5-3.7c1.5,5.2,6.1,12.1,12.1,12.7C23.5,40.9,25.1,35.6,25.1,35.6z"/>
	<path class="st1" d="M25,34.7c2.4-5.9,7.4-8.4,10.5-9c-0.4-1.5-3.1-3.8-4.1-5.3c-0.9-1.4-2-3.6-1.8-6.1C27.2,16,21.6,28.6,25,34.7z
		"/>
	<path class="st1" d="M60,24.8c-0.2,0.2-0.5,0.4-0.7,0.5c-1.4,0.9-3,1.5-4.7,1.6c-0.1,0-0.3,0-0.4,0c-9.8,0.3-20-4.3-26.4,6.4
		c-1.1,1.9-1.9,4.9-1.4,7.5c2-3.1,6-8,13.8-9.8c1.9-0.5,10-1.2,13.7-2.1l2.1-0.6c-1.2,1.9-12.3,3.2-15.7,4.3
		c-5.7,1.7-11.1,8-12.8,10.8c0.5,0.7,1.2,1.3,2.1,1.6c10.1,4.4,21.3-6.8,27.6-15.6c0.9-1.3,1.7-2.6,2.4-3.7
		C59.7,25.3,59.8,25,60,24.8z"/>
</g>
</svg>
