<?xml version="1.0" encoding="UTF-8" standalone="no"?>
<!DOCTYPE svg PUBLIC "-//W3C//DTD SVG 1.1//EN" "http://www.w3.org/Graphics/SVG/1.1/DTD/svg11.dtd">
<svg width="100%" height="100%" viewBox="0 0 243 53" version="1.1" xmlns="http://www.w3.org/2000/svg" xmlns:xlink="http://www.w3.org/1999/xlink" xml:space="preserve" xmlns:serif="http://www.serif.com/" style="fill-rule:evenodd;clip-rule:evenodd;stroke-linejoin:round;stroke-miterlimit:2;">
    <g transform="matrix(1,0,0,1,-170,-504.6)">
        <path d="M369.3,522.7L370.6,522.7C370.5,520.2 370,518.1 369.2,516.4C368.4,514.7 367.2,513.3 365.8,512.2C364.4,511.1 362.8,510.3 360.9,509.9C359.1,509.4 357,509.2 354.8,509.2C353,509.2 351.2,509.4 349.4,509.8C347.6,510.2 346,510.8 344.5,511.7C343,512.6 341.9,513.8 340.9,515.3C340,516.8 339.5,518.6 339.5,520.8C339.5,523 339.9,524.7 340.8,526.1C341.7,527.4 342.8,528.5 344.2,529.3C345.7,530.1 347.3,530.7 349.1,531.2C350.9,531.7 352.7,532.1 354.5,532.5C356.2,532.9 358,533.3 359.8,533.8C361.7,534.2 363.4,534.8 364.9,535.5C366.4,536.2 367.7,537.3 368.6,538.6C369.6,539.9 370.1,541.7 370.1,543.9C370.1,545.8 369.7,547.5 368.8,548.8C368,550.2 366.9,551.3 365.5,552.2C364.1,553.1 362.6,553.7 360.8,554.1C359.1,554.5 357.4,554.7 355.6,554.7C353.2,554.7 351,554.5 349,553.9C347,553.4 345.3,552.5 343.9,551.3C342.5,550.1 341.4,548.6 340.6,546.8C339.8,544.9 339.4,542.7 339.4,540L338.2,540C338.2,542.8 338.6,545.2 339.4,547.2C340.3,549.2 341.5,550.8 343,552.1C344.6,553.4 346.4,554.3 348.6,554.9C350.8,555.5 353.1,555.8 355.7,555.8C357.6,555.8 359.5,555.6 361.4,555.1C363.3,554.7 365,554 366.5,553C368,552 369.2,550.7 370.1,549.3C371,547.8 371.5,546 371.5,543.9C371.5,541.6 371.1,539.7 370.3,538.3C369.5,536.9 368.4,535.8 367.1,535C365.7,534.2 364.1,533.5 362.2,533C360.4,532.5 358.4,532 356.3,531.4C354.4,530.9 352.5,530.5 350.7,530.1C348.9,529.7 347.2,529.1 345.8,528.4C344.4,527.6 343.2,526.7 342.3,525.5C341.4,524.3 341,522.7 341,520.7C341,518.7 341.4,517.1 342.3,515.8C343.2,514.5 344.3,513.4 345.6,512.6C347,511.8 348.5,511.3 350.2,511C351.9,510.7 353.5,510.5 355,510.5C357,510.5 358.9,510.7 360.6,511.1C362.3,511.5 363.8,512.2 365.1,513.2C366.4,514.2 367.4,515.4 368.2,517C368.8,518.5 369.3,520.4 369.3,522.7Z" style="fill-rule:nonzero;"/>
    </g>
    <g transform="matrix(1,0,0,1,-170,-504.6)">
        <rect x="377.2" y="548.7" width="1.2" height="6.2" style="fill-rule:nonzero;"/>
    </g>
    <g transform="matrix(1,0,0,1,-170,-504.6)">
        <path d="M385.9,554.9L385.9,536.7C385.9,535 386.1,533.2 386.6,531.6C387.1,529.9 387.9,528.5 388.9,527.2C389.9,525.9 391.3,524.9 392.8,524.2C394.4,523.5 396.3,523.1 398.5,523.3L398.5,522C396.6,522 394.9,522.2 393.4,522.6C392,523.1 390.8,523.7 389.7,524.5C388.7,525.3 387.8,526.2 387.2,527.3C386.6,528.3 386.1,529.5 385.8,530.7L385.7,530.7L385.7,522.8L384.4,522.8L384.4,554.9L385.9,554.9Z" style="fill-rule:nonzero;"/>
    </g>
    <g transform="matrix(1,0,0,1,-170,-504.6)">
        <rect x="396.8" y="548.7" width="1.2" height="6.2" style="fill-rule:nonzero;"/>
    </g>
    <g transform="matrix(1,0,0,1,-170,-504.6)">
        <rect x="404.3" y="510.2" width="1.2" height="44.7" style="fill-rule:nonzero;"/>
    </g>
    <g transform="matrix(1,0,0,1,-170,-504.6)">
        <rect x="411.7" y="548.7" width="1.3" height="6.2" style="fill-rule:nonzero;"/>
    </g>
    <g transform="matrix(1,0,0,1,-170,-504.6)">
        <path d="M170,524.4L170,555.3L178.2,555.3L178.2,535.4C178.2,533.9 178.9,528 185,527.7C192,527.4 191.1,535.1 191.1,536L191.1,555.3L199.5,555.3L199.5,536.2C199.5,535.3 199.6,534.3 199.7,533.4C199.9,532.5 200.8,527.8 205.9,527.8C211.6,527.8 212.1,532.1 212.1,533C212.2,533.9 212.3,534.8 212.3,535.8L212.3,555.2L220.6,555.3L220.6,532.7C220.6,530.7 220.3,529.1 219.8,527.7C219.2,526.3 217.4,521.5 209.4,521.4C202.1,521.4 199.3,526.2 198.4,527.6C197.9,525.7 195.2,521.4 189.3,521.4C182.4,521.4 179,525.1 177.9,526.7L177.8,526.7L177.8,524.4L170,524.4Z" style="fill:rgb(40,39,39);fill-rule:nonzero;"/>
    </g>
    <g transform="matrix(1,0,0,1,-170,-504.6)">
        <path d="M230,535C230.9,534.1 231.8,533.1 232.7,532C233.6,531 234.6,530 235.4,529C236.3,528 237.1,527.1 237.8,526.2C238.6,525.3 241.1,522.4 241.6,521.7L251.9,521.7C249.8,524.1 247.4,526.8 245.4,529C243.4,531.2 240.6,534 238.3,536.4C240.1,537.9 243.9,542.3 245.5,544.3C246.7,545.9 251.3,552.1 252.6,555.3L242.6,555.3C242,554.3 239.7,550.7 236.4,546.3C234.3,543.4 231.4,540.6 230,539.7L230,555.3L221.9,555.3L221.9,533C221.9,529 221.2,527.3 221.2,527.3L221.2,506.9L230,505.5L230,535Z" style="fill:rgb(40,39,39);fill-rule:nonzero;"/>
    </g>
    <g transform="matrix(1,0,0,1,-170,-504.6)">
        <path d="M283.9,556.3C283.1,556.3 280.1,556 278.6,554.3C277.2,552.7 277,550.3 277,549.4L277,505.2L279.2,504.8L279.2,549.4C279.2,550 279.8,551.7 279.9,552.1C280,552.4 281,553.6 281.3,553.7C282.8,555.7 283.9,556.3 283.9,556.3Z" style="fill:rgb(178,178,178);fill-rule:nonzero;"/>
    </g>
    <g transform="matrix(1,0,0,1,-170,-504.6)">
        <path d="M294.4,554.7C296.4,554.7 297.9,554.7 299.4,554.6C300.9,554.4 302.2,554 303.2,553.8L303.2,539.7C302.6,539.4 301.8,539.1 300.5,538.8C299.3,538.5 297.9,538.2 295.7,538.2C294.5,538.2 292.8,538.3 291.5,538.5C290.2,538.7 288.8,539.2 287.7,539.8C286.6,540.4 285.8,541.2 285.1,542.2C284.4,543.2 284,544.6 284,546.3C284,547.8 284.2,549.1 284.7,550.1C285.2,551.1 285.9,552.1 286.8,552.7C287.7,553.3 288.7,553.9 290,554.2C291.2,554.6 292.8,554.7 294.4,554.7ZM293.8,521.6C296,521.6 297.9,521.9 299.4,522.6C301,523.2 302.2,524.1 303.2,525.2C304.1,526.3 304.6,527.7 305.1,529.3C305.5,530.8 305.6,532.4 305.6,534.2L305.6,555.3C305.2,555.4 304.9,555.4 304.1,555.6L301.3,556.1C300.2,556.3 299,556.4 297.7,556.5C296.4,556.6 295.1,556.7 293.7,556.7C291.9,556.7 290.3,556.5 288.8,556.1C287.3,555.7 286,555.1 284.9,554.3C283.8,553.4 281.3,551.3 281.7,545.9C281.9,543.7 283.2,540.1 286.6,538.5C291.5,536.1 299,537 300.9,537.6C302.9,538.2 303.4,538.6 303.4,538.7C303.4,538.7 303.9,531.3 302.1,528C301.5,527.1 300,524 294.3,523.6C291,523.4 287.4,524.2 286.9,524.4C286.9,524.4 287.1,523.2 288.4,522.2C289.8,521.7 291.7,521.6 293.8,521.6Z" style="fill:rgb(178,178,178);"/>
    </g>
    <g transform="matrix(1,0,0,1,-170,-504.6)">
        <path d="M261.2,549.4C262.3,549.4 263.3,549.4 264.2,549.3C265.2,549.3 266,549.1 266.6,549L266.6,540.8C266.2,540.7 265.5,540.5 264.6,540.4C263.7,540.3 263.1,540.2 262.3,540.2C261.3,540.2 260.3,540.3 259.4,540.4C258.5,540.5 257.8,540.8 257.1,541.1C256.4,541.4 255.8,542 255.4,542.5C255,543.1 254.8,543.8 254.8,544.7C254.8,546.4 255.4,547.6 256.5,548.2C257.7,549 259.2,549.4 261.2,549.4ZM267.3,521.6C269.1,522.2 270.7,523.2 271.8,524.3C272.9,525.5 273.8,526.6 274.2,528.3C274.7,530 274.9,531.9 274.9,533.9L274.9,554.2C273.6,554.5 271.1,555 268.7,555.4C260.6,556.5 255.5,555.5 253.7,555.2C252.1,551.8 248.7,547 246.2,543.7C246.3,542.5 247,540.4 247.7,539.5C252.5,532.9 265,534.9 266.5,535.5C266.5,535.5 267.2,531 264.2,529C262.1,527.7 259.9,527.8 257.6,528C256,528.1 252,528.6 250.9,529C250.9,529 253.2,521.4 254.2,521.2C255.2,521.1 261.7,520.1 267.3,521.6Z" style="fill:rgb(40,39,39);"/>
    </g>
    <g transform="matrix(1,0,0,1,-170,-504.6)">
        <path d="M310.9,553.4C311.7,553.7 313,554 314.4,554.3C315.9,554.5 317.7,554.7 320.1,554.7C324.3,554.7 327.8,553.3 330.1,550.9C332.8,548.2 334.1,544.2 334.1,539.1C334.1,536.9 333.9,534.9 333.4,533C332.9,531 332,529.5 331,528C327.5,523.6 323.3,523.6 320.9,523.5C316.8,523.4 313.5,525.4 312.8,525.8C312.1,526.2 311.2,526.9 310.8,527.3L310.8,553.4L310.9,553.4ZM310.9,525.7C311.6,525.2 313.1,523.6 316.4,522.4C326.2,519.4 331.4,524.7 332.6,526.2C333.8,527.7 336.8,531.8 336.8,538.2C336.9,546.4 333.7,550.4 332.3,551.9C326.1,558.8 313.9,556.1 312,555.7C310.1,555.3 309.8,555.2 308.6,554.8L308.6,505L310.9,504.6L310.9,525.7Z" style="fill:rgb(178,178,178);"/>
    </g>
</svg>
