<?xml version="1.0" encoding="UTF-8" standalone="no"?>
<!DOCTYPE svg PUBLIC "-//W3C//DTD SVG 1.1//EN" "http://www.w3.org/Graphics/SVG/1.1/DTD/svg11.dtd">
<svg width="100%" height="100%" viewBox="0 0 360 27" version="1.1" xmlns="http://www.w3.org/2000/svg" xmlns:xlink="http://www.w3.org/1999/xlink" xml:space="preserve" xmlns:serif="http://www.serif.com/" style="fill-rule:evenodd;clip-rule:evenodd;stroke-miterlimit:3.864;">
    <g transform="matrix(1,0,0,1,-118.8,-276)">
        <path d="M118.8,284L118.8,301.4L123.8,301.4L123.8,290.7C123.8,289.8 123.9,289.1 124.2,288.5C124.5,287.9 124.8,287.5 125.1,287.2C125.5,286.9 125.9,286.7 126.2,286.6C126.6,286.5 126.9,286.4 127.2,286.4C128,286.4 128.6,286.5 129,286.8C129.4,287.1 129.7,287.4 129.9,287.9C130.1,288.4 130.2,288.9 130.2,289.4L130.2,301.3L135.2,301.3L135.2,291.1C135.2,290.5 135.2,290 135.3,289.4C135.4,288.8 135.6,288.3 135.8,287.9C136.1,287.5 136.4,287.1 136.8,286.8C137.3,286.5 137.8,286.4 138.5,286.4C139.2,286.4 139.8,286.5 140.2,286.8C140.6,287 140.9,287.4 141.2,287.8C141.4,288.2 141.5,288.7 141.6,289.2C141.7,289.7 141.7,290.3 141.7,290.9L141.7,301.3L146.7,301.3L146.7,289C146.7,287.8 146.5,286.8 146.2,286C145.9,285.1 145.4,284.5 144.8,283.9C144.2,283.4 143.5,283 142.7,282.8C141.9,282.6 141,282.4 140,282.4C138.7,282.4 137.6,282.7 136.7,283.3C135.8,283.9 135,284.6 134.5,285.4C134,284.3 133.3,283.5 132.3,283C131.4,282.5 130.3,282.3 129.1,282.3C127.9,282.3 126.8,282.6 125.9,283.1C125,283.6 124.2,284.4 123.5,285.3L123.4,285.3L123.4,284L118.8,284Z" style="fill-rule:nonzero;"/>
    </g>
    <g transform="matrix(1,0,0,1,-118.8,-276)">
        <path d="M118.8,284L118.8,301.4L123.8,301.4L123.8,290.7C123.8,289.8 123.9,289.1 124.2,288.5C124.5,287.9 124.8,287.5 125.1,287.2C125.5,286.9 125.9,286.7 126.2,286.6C126.6,286.5 126.9,286.4 127.2,286.4C128,286.4 128.6,286.5 129,286.8C129.4,287.1 129.7,287.4 129.9,287.9C130.1,288.4 130.2,288.9 130.2,289.4L130.2,301.3L135.2,301.3L135.2,291.1C135.2,290.5 135.2,290 135.3,289.4C135.4,288.8 135.6,288.3 135.8,287.9C136.1,287.5 136.4,287.1 136.8,286.8C137.3,286.5 137.8,286.4 138.5,286.4C139.2,286.4 139.8,286.5 140.2,286.8C140.6,287 140.9,287.4 141.2,287.8C141.4,288.2 141.5,288.7 141.6,289.2C141.7,289.7 141.7,290.3 141.7,290.9L141.7,301.3L146.7,301.3L146.7,289C146.7,287.8 146.5,286.8 146.2,286C145.9,285.1 145.4,284.5 144.8,283.9C144.2,283.4 143.5,283 142.7,282.8C141.9,282.6 141,282.4 140,282.4C138.7,282.4 137.6,282.7 136.7,283.3C135.8,283.9 135,284.6 134.5,285.4C134,284.3 133.3,283.5 132.3,283C131.4,282.5 130.3,282.3 129.1,282.3C127.9,282.3 126.8,282.6 125.9,283.1C125,283.6 124.2,284.4 123.5,285.3L123.4,285.3L123.4,284L118.8,284Z" style="fill-rule:nonzero;"/>
    </g>
    <g transform="matrix(1,0,0,1,-118.8,-276)">
        <path d="M161.6,290.3L153.4,290.3C153.4,289.9 153.5,289.5 153.6,289.1C153.7,288.6 154,288.2 154.3,287.8C154.6,287.4 155.1,287.1 155.6,286.8C156.1,286.5 156.8,286.4 157.6,286.4C158.8,286.4 159.7,286.7 160.3,287.4C161,288.1 161.4,289 161.6,290.3M153.4,293.5L166.7,293.5C166.8,292.1 166.7,290.7 166.3,289.4C165.9,288.1 165.4,286.9 164.7,285.9C164,284.9 163,284.1 161.9,283.5C160.7,282.9 159.4,282.6 157.8,282.6C156.4,282.6 155.1,282.8 154,283.3C152.9,283.8 151.9,284.5 151.1,285.4C150.3,286.3 149.6,287.3 149.2,288.5C148.8,289.7 148.5,291 148.5,292.3C148.5,293.7 148.7,295 149.1,296.2C149.6,297.4 150.2,298.4 151,299.3C151.8,300.2 152.8,300.8 153.9,301.3C155.1,301.8 156.4,302 157.8,302C159.9,302 161.7,301.5 163.1,300.6C164.6,299.7 165.7,298.1 166.4,295.9L162,295.9C161.8,296.5 161.4,297 160.7,297.5C160,298 159.1,298.2 158.1,298.2C156.7,298.2 155.6,297.8 154.8,297.1C153.9,296.3 153.5,295.1 153.4,293.5" style="fill-rule:nonzero;"/>
    </g>
    <g transform="matrix(1,0,0,1,-118.8,-276)">
        <path d="M181.6,292.2C181.6,293 181.5,293.7 181.4,294.4C181.3,295.1 181,295.7 180.7,296.3C180.4,296.8 179.9,297.3 179.4,297.6C178.9,297.9 178.2,298.1 177.3,298.1C176.5,298.1 175.8,297.9 175.3,297.6C174.8,297.2 174.3,296.8 173.9,296.3C173.5,295.7 173.3,295.1 173.1,294.4C172.9,293.7 172.9,293 172.9,292.3C172.9,291.5 173,290.8 173.1,290.1C173.3,289.4 173.5,288.8 173.8,288.2C174.2,287.7 174.6,287.2 175.2,286.9C175.8,286.6 176.5,286.4 177.3,286.4C178.1,286.4 178.8,286.6 179.4,286.9C179.9,287.2 180.4,287.7 180.7,288.2C181.1,288.7 181.3,289.3 181.4,290C181.6,290.7 181.6,291.5 181.6,292.2M181.7,299.1L181.7,301.4L186.5,301.4L186.5,276L181.5,276L181.5,285.2L181.4,285.2C180.8,284.3 180.1,283.6 179.1,283.2C178.1,282.7 177.1,282.5 176,282.5C174.6,282.5 173.5,282.8 172.4,283.3C171.4,283.8 170.5,284.5 169.8,285.4C169.1,286.3 168.6,287.3 168.3,288.5C168,289.6 167.8,290.8 167.8,292.1C167.8,293.4 168,294.6 168.3,295.8C168.7,297 169.2,298 169.8,299C170.5,299.9 171.4,300.6 172.4,301.2C173.4,301.7 174.7,302 176,302C177.2,302 178.3,301.8 179.2,301.4C180.3,300.8 181,300.1 181.7,299.1Z" style="fill-rule:nonzero;"/>
    </g>
    <g transform="matrix(1,0,0,1,-118.8,-276)">
        <path d="M188.7,301.5L193.7,301.5L193.7,283.1L188.7,283.1L188.7,301.5ZM188.7,280.2L193.7,280.2L193.7,276L188.7,276L188.7,280.2Z" style="fill-rule:nonzero;"/>
    </g>
    <g transform="matrix(1,0,0,1,-118.8,-276)">
        <path d="M195.7,288.7L200.7,288.7C200.8,287.7 201.1,287 201.7,286.6C202.3,286.2 203.1,286 204,286C204.5,286 204.9,286 205.2,286.1C205.6,286.1 205.9,286.3 206.2,286.5C206.5,286.7 206.7,286.9 206.9,287.2C207.1,287.5 207.2,287.9 207.2,288.5C207.2,289 207.1,289.4 206.7,289.7C206.4,290 205.9,290.2 205.3,290.3C204.7,290.4 204.1,290.5 203.3,290.6C202.6,290.7 201.8,290.8 201.1,290.9C200.3,291 199.6,291.2 198.8,291.4C198.1,291.6 197.4,291.9 196.8,292.3C196.2,292.7 195.8,293.2 195.4,293.9C195,294.6 194.9,295.4 194.9,296.5C194.9,297.4 195.1,298.3 195.4,299C195.7,299.7 196.2,300.3 196.8,300.7C197.4,301.2 198,301.5 198.8,301.7C199.6,301.9 200.4,302 201.3,302C202.4,302 203.6,301.8 204.6,301.5C205.7,301.2 206.6,300.6 207.4,299.8C207.4,300.1 207.5,300.4 207.5,300.7C207.6,301 207.7,301.3 207.7,301.6L212.8,301.6C212.6,301.2 212.4,300.7 212.3,299.9C212.2,299.1 212.2,298.3 212.2,297.5L212.2,287.9C212.2,286.8 212,285.9 211.5,285.2C211,284.5 210.4,284 209.6,283.6C208.8,283.2 208,283 207,282.9C206.1,282.8 205.1,282.7 204.2,282.7C203.2,282.7 202.2,282.8 201.1,283C200.1,283.2 199.2,283.5 198.4,284C197.6,284.5 196.9,285.1 196.4,285.9C196.1,286.6 195.8,287.6 195.7,288.7M207.4,292.5L207.4,294.4C207.4,294.7 207.4,295.1 207.3,295.5C207.3,296 207.1,296.4 206.8,296.9C206.5,297.3 206.1,297.7 205.6,298.1C205.1,298.4 204.3,298.6 203.3,298.6C202.9,298.6 202.5,298.6 202.1,298.5C201.7,298.4 201.4,298.3 201.1,298.1C200.8,297.9 200.6,297.7 200.4,297.4C200.2,297.1 200.1,296.7 200.1,296.3C200.1,295.8 200.2,295.4 200.4,295.1C200.6,294.8 200.8,294.5 201,294.4C201.3,294.2 201.6,294 202,293.9C202.4,293.8 202.8,293.7 203.1,293.6C203.5,293.5 203.9,293.5 204.3,293.4C204.7,293.4 205.1,293.3 205.4,293.2C205.8,293.1 206.1,293 206.4,293C206.9,292.8 207.1,292.7 207.4,292.5" style="fill-rule:nonzero;"/>
    </g>
    <g transform="matrix(1,0,0,1,-118.8,-276)">
        <path d="M220.9,283.1L220.9,277.6L215.9,277.6L215.9,283.1L212.8,283.1L212.8,286.5L215.9,286.5L215.9,297.3C215.9,298.2 216.1,299 216.4,299.5C216.7,300.1 217.1,300.5 217.6,300.8C218.1,301.1 218.8,301.3 219.4,301.4C220.1,301.5 220.9,301.6 221.6,301.6L223.1,301.6C223.6,301.6 224.1,301.5 224.5,301.5L224.5,297.6C224.3,297.6 224,297.7 223.8,297.7L223,297.7C222.2,297.7 221.6,297.6 221.3,297.3C221,297 220.9,296.4 220.9,295.6L220.9,286.5L224.6,286.5L224.6,283.1L220.9,283.1Z" style="fill-rule:nonzero;"/>
    </g>
    <g transform="matrix(1,0,0,1,-118.8,-276)">
        <path d="M226.1,301.5L231.1,301.5L231.1,283.1L226.1,283.1L226.1,301.5ZM226.1,280.2L231.1,280.2L231.1,276L226.1,276L226.1,280.2Z" style="fill-rule:nonzero;"/>
    </g>
    <g transform="matrix(1,0,0,1,-118.8,-276)">
        <path d="M245.9,289.6L250.8,289.6C250.7,288.4 250.4,287.4 249.9,286.5C249.4,285.6 248.7,284.9 247.9,284.3C247.1,283.7 246.2,283.3 245.2,283C244.2,282.7 243.2,282.6 242.1,282.6C240.6,282.6 239.3,282.8 238.1,283.3C236.9,283.8 236,284.5 235.2,285.4C234.4,286.3 233.8,287.3 233.4,288.6C233,289.8 232.8,291.1 232.8,292.5C232.8,293.9 233,295.1 233.5,296.3C234,297.4 234.6,298.4 235.4,299.3C236.2,300.1 237.2,300.8 238.3,301.3C239.5,301.8 240.7,302 242.1,302C244.5,302 246.5,301.4 248.1,300.1C249.7,298.8 250.6,297 250.9,294.5L246,294.5C245.8,295.6 245.4,296.6 244.8,297.2C244.2,297.9 243.2,298.2 242,298.2C241.2,298.2 240.6,298 240,297.7C239.5,297.3 239,296.9 238.7,296.4C238.4,295.8 238.2,295.2 238,294.5C237.9,293.8 237.8,293.1 237.8,292.5C237.8,291.8 237.9,291.1 238,290.4C238.1,289.7 238.4,289.1 238.7,288.5C239.1,287.9 239.5,287.4 240.1,287.1C240.6,286.7 241.3,286.5 242.1,286.5C244.3,286.4 245.6,287.5 245.9,289.6" style="fill-rule:nonzero;"/>
    </g>
    <g transform="matrix(1,0,0,1,-118.8,-276)">
        <path d="M251.8,288.7L256.8,288.7C256.9,287.7 257.2,287 257.8,286.6C258.4,286.2 259.1,286 260.1,286C260.6,286 261,286 261.3,286.1C261.7,286.1 262,286.3 262.3,286.5C262.6,286.7 262.8,286.9 263,287.2C263.2,287.5 263.3,287.9 263.3,288.5C263.3,289 263.2,289.4 262.8,289.7C262.5,290 262,290.2 261.4,290.3C260.8,290.4 260.2,290.5 259.4,290.6C258.7,290.7 257.9,290.8 257.2,290.9C256.4,291 255.7,291.2 254.9,291.4C254.2,291.6 253.5,291.9 252.9,292.3C252.3,292.7 251.9,293.2 251.5,293.9C251.1,294.6 251,295.4 251,296.5C251,297.4 251.2,298.3 251.5,299C251.8,299.7 252.3,300.3 252.8,300.7C253.4,301.2 254,301.5 254.8,301.7C255.6,301.9 256.4,302 257.3,302C258.4,302 259.6,301.8 260.6,301.5C261.7,301.2 262.6,300.6 263.4,299.8C263.4,300.1 263.5,300.4 263.5,300.7C263.6,301 263.7,301.3 263.7,301.6L268.8,301.6C268.6,301.2 268.4,300.7 268.3,299.9C268.2,299.1 268.2,298.3 268.2,297.5L268.2,287.9C268.2,286.8 267.9,285.9 267.5,285.2C267,284.5 266.4,284 265.6,283.6C264.8,283.2 264,283 263,282.9C262,282.8 261.1,282.7 260.2,282.7C259.2,282.7 258.2,282.8 257.1,283C256.1,283.2 255.2,283.5 254.4,284C253.6,284.5 252.9,285.1 252.4,285.9C252.2,286.6 251.9,287.6 251.8,288.7M263.4,292.5L263.4,294.4C263.4,294.7 263.4,295.1 263.3,295.5C263.2,296 263.1,296.4 262.8,296.9C262.5,297.3 262.1,297.7 261.6,298.1C261.1,298.4 260.3,298.6 259.3,298.6C258.9,298.6 258.5,298.6 258.1,298.5C257.7,298.4 257.4,298.3 257.1,298.1C256.8,297.9 256.6,297.7 256.4,297.4C256.2,297.1 256.2,296.7 256.2,296.3C256.2,295.8 256.3,295.4 256.4,295.1C256.6,294.8 256.8,294.5 257,294.4C257.3,294.2 257.6,294 258,293.9C258.4,293.8 258.8,293.7 259.1,293.6C259.5,293.5 259.9,293.5 260.3,293.4C260.7,293.4 261.1,293.3 261.4,293.2C261.8,293.1 262.1,293 262.4,293C263,292.8 263.2,292.7 263.4,292.5" style="fill-rule:nonzero;"/>
    </g>
    <g transform="matrix(1,0,0,1,-118.8,-276)">
        <path d="M267.1,280.7C267.1,279.3 268.2,278.2 269.6,278.2C271,278.2 272.1,279.3 272.1,280.7C272.1,282.1 271,283.2 269.6,283.2C268.2,283.2 267.1,282.1 267.1,280.7Z" style="fill:none;fill-rule:nonzero;stroke:black;stroke-width:0.19px;"/>
    </g>
    <g transform="matrix(1,0,0,1,-118.8,-276)">
        <path d="M268.5,279L268.5,282.3L268.9,282.3L268.9,280.9L270.1,280.9C270.2,280.9 270.2,281 270.2,281C270.2,281.1 270.3,281.1 270.3,281.2L270.3,282C270.3,282.1 270.3,282.1 270.4,282.1L270.9,282.1C270.9,282 270.8,282 270.8,281.9L270.8,281.1C270.8,281 270.8,281 270.7,280.9C270.7,280.8 270.6,280.8 270.6,280.7C270.5,280.7 270.5,280.6 270.4,280.6C270.6,280.5 270.7,280.4 270.8,280.3C270.9,280.2 270.9,280 270.9,279.8C270.9,279.5 270.8,279.3 270.6,279.2C270.4,279.1 270.2,279 269.9,279L268.5,279ZM269.8,280.6L268.9,280.6L268.9,279.5L269.9,279.5C270.1,279.5 270.2,279.5 270.3,279.6C270.4,279.7 270.4,279.8 270.4,280C270.4,280.1 270.4,280.2 270.3,280.3C270.3,280.4 270.2,280.4 270.1,280.5C270,280.5 270,280.6 269.9,280.6C270,280.6 269.9,280.6 269.8,280.6" style="fill-rule:nonzero;"/>
    </g>
    <g transform="matrix(1,0,0,1,-118.8,-276)">
        <path d="M465.2,296.2C465.4,297 465.8,297.7 466.2,298.4C466.7,299 467.3,299.6 468,300C468.7,300.4 469.6,300.6 470.6,300.6C472.1,300.6 473.3,300.2 474.2,299.4C475.1,298.6 475.7,297.5 476,296.2L478.1,296.2C477.7,298.2 476.8,299.7 475.6,300.7C474.4,301.8 472.7,302.3 470.5,302.3C469.1,302.3 468,302.1 467,301.6C466,301.1 465.2,300.5 464.6,299.6C464,298.8 463.5,297.8 463.2,296.7C462.9,295.6 462.7,294.4 462.7,293.2C462.7,292.1 462.9,290.9 463.2,289.9C463.5,288.8 464,287.8 464.6,287C465.2,286.1 466,285.5 467,284.9C468,284.4 469.2,284.1 470.5,284.1C471.9,284.1 473.1,284.4 474,284.9C474.9,285.4 475.8,286.2 476.4,287.1C477,288 477.5,289 477.7,290.2C478,291.4 478.1,292.6 478,293.8L464.7,293.8C464.9,294.6 465,295.4 465.2,296.2M475.6,289.8C475.3,289.1 475,288.4 474.5,287.8C474,287.2 473.5,286.8 472.8,286.4C472.1,286.1 471.4,285.9 470.5,285.9C469.6,285.9 468.9,286.1 468.2,286.4C467.5,286.7 467,287.2 466.5,287.8C466,288.4 465.7,289 465.4,289.8C465.1,290.6 464.9,291.3 464.8,292.1L476,292.1C476,291.3 475.9,290.5 475.6,289.8M448.1,284.7L448.1,287.7L448.2,287.7C448.6,286.7 449.3,285.8 450.3,285.2C451.3,284.6 452.5,284.2 453.7,284.2C454.9,284.2 455.9,284.4 456.7,284.7C457.5,285 458.2,285.5 458.7,286C459.2,286.6 459.5,287.3 459.7,288.1C459.9,288.9 460,289.9 460,290.9L460,302L457.9,302L457.9,291.2C457.9,290.5 457.8,289.8 457.7,289.1C457.6,288.5 457.3,287.9 457,287.4C456.7,286.9 456.2,286.6 455.6,286.3C455,286 454.3,285.9 453.5,285.9C452.7,285.9 451.9,286 451.2,286.4C450.5,286.8 450,287.1 449.5,287.6C449,288.1 448.7,288.7 448.4,289.5C448.1,290.3 448,291 448,291.9L448,302L446,302L446,284.8L448.1,284.8L448.1,284.7ZM438.5,284.9C439.5,285.4 440.4,286 441.1,286.9C441.8,287.8 442.3,288.7 442.7,289.8C443.1,290.9 443.2,292.1 443.2,293.3C443.2,294.5 443,295.7 442.7,296.8C442.3,297.9 441.8,298.9 441.1,299.7C440.4,300.5 439.6,301.2 438.5,301.7C437.5,302.2 436.3,302.4 435,302.4C433.7,302.4 432.5,302.2 431.5,301.7C430.5,301.2 429.6,300.6 428.9,299.7C428.2,298.9 427.7,297.9 427.3,296.8C426.9,295.7 426.8,294.5 426.8,293.3C426.8,292.1 427,290.9 427.3,289.8C427.7,288.7 428.2,287.7 428.9,286.9C429.6,286.1 430.4,285.4 431.5,284.9C432.6,284.4 433.7,284.2 435,284.2C436.4,284.2 437.5,284.4 438.5,284.9M432.4,286.6C431.6,287 431,287.6 430.5,288.3C430,289 429.6,289.8 429.4,290.7C429.1,291.6 429,292.5 429,293.4C429,294.3 429.1,295.2 429.4,296.1C429.7,297 430,297.8 430.5,298.5C431,299.2 431.6,299.7 432.4,300.2C433.2,300.6 434,300.8 435,300.8C436,300.8 436.9,300.6 437.6,300.2C438.4,299.8 439,299.2 439.5,298.5C440,297.8 440.4,297 440.6,296.1C440.9,295.2 441,294.3 441,293.4C441,292.5 440.9,291.6 440.6,290.7C440.3,289.8 440,289 439.5,288.3C439,287.6 438.4,287.1 437.6,286.6C436.8,286.2 436,286 435,286C434.1,285.9 433.2,286.2 432.4,286.6M424.7,301.9L422.6,301.9L422.6,284.6L424.7,284.6L424.7,301.9ZM424.7,281.4L422.6,281.4L422.6,278L424.7,278L424.7,281.4ZM421,300.2L421,302L406.6,302L406.6,300.3L417.9,286.5L407.4,286.5L407.4,284.7L420.6,284.7L420.6,286.2L409.2,300.2L421,300.2ZM402.1,292.5C402,292.7 401.7,292.9 401.3,293C400.9,293.1 400.6,293.2 400.3,293.2C399.4,293.4 398.5,293.5 397.5,293.6C396.6,293.7 395.7,293.9 394.9,294.2C394.1,294.4 393.5,294.8 393,295.3C392.5,295.8 392.2,296.4 392.2,297.3C392.2,297.8 392.3,298.3 392.5,298.7C392.7,299.1 393,299.5 393.4,299.8C393.8,300.1 394.2,300.3 394.6,300.5C395.1,300.7 395.5,300.7 396,300.7C396.8,300.7 397.6,300.6 398.3,300.3C399,300.1 399.7,299.7 400.2,299.2C400.7,298.7 401.2,298.2 401.5,297.5C401.8,296.8 402,296.1 402,295.2L402.1,292.5ZM391.5,287.4C391.9,286.7 392.3,286.1 393,285.6C393.6,285.1 394.3,284.8 395.2,284.6C396,284.4 396.9,284.3 397.9,284.3C398.7,284.3 399.4,284.4 400.2,284.5C401,284.6 401.6,284.9 402.2,285.3C402.8,285.7 403.3,286.3 403.7,287C404.1,287.7 404.3,288.7 404.3,289.8L404.3,299C404.3,299.8 404.7,300.3 405.5,300.3C405.7,300.3 406,300.3 406.2,300.2L406.2,302C406,302 405.7,302.1 405.5,302.1L404.8,302.1C404.3,302.1 403.8,302 403.5,301.9C403.2,301.8 402.9,301.5 402.7,301.3C402.5,301.1 402.4,300.7 402.3,300.3C402.2,299.9 402.2,299.5 402.2,299.1L402.1,299.1C401.7,299.7 401.3,300.2 400.9,300.6C400.5,301 400.1,301.4 399.6,301.7C399.1,302 398.6,302.2 398,302.4C397.4,302.6 396.7,302.6 395.8,302.6C395,302.6 394.2,302.5 393.5,302.3C392.8,302.1 392.2,301.8 391.7,301.4C391.2,301 390.8,300.5 390.5,299.8C390.2,299.2 390,298.4 390,297.5C390,296.3 390.3,295.4 390.8,294.7C391.3,294 392,293.5 392.9,293.1C393.8,292.7 394.8,292.5 395.9,292.3C397,292.2 398.1,292 399.3,291.9C399.7,291.9 400.1,291.8 400.5,291.7C400.8,291.6 401.1,291.5 401.3,291.3C401.5,291.1 401.7,290.9 401.8,290.6C401.9,290.3 402,289.9 402,289.5C402,288.8 401.9,288.2 401.6,287.7C401.4,287.2 401,286.9 400.6,286.6C400.2,286.3 399.7,286.1 399.2,286C398.7,285.9 398.1,285.9 397.4,285.9C396.1,285.9 395,286.2 394.1,286.9C393.3,287.5 392.8,288.6 392.8,290L390.7,290C391,289 391.2,288.1 391.5,287.4M384.6,287.1C383.8,286.4 382.7,286 381.3,286C380.3,286 379.4,286.2 378.7,286.6C378,287 377.3,287.6 376.8,288.3C376.3,289 375.9,289.8 375.7,290.7C375.4,291.6 375.3,292.5 375.3,293.4C375.3,294.3 375.4,295.2 375.7,296.1C376,297 376.3,297.8 376.8,298.5C377.3,299.2 377.9,299.7 378.7,300.2C379.5,300.7 380.3,300.8 381.3,300.8C381.9,300.8 382.6,300.7 383.1,300.4C383.7,300.2 384.2,299.8 384.6,299.4C385,299 385.4,298.4 385.7,297.8C386,297.2 386.2,296.5 386.2,295.8L388.3,295.8C388,297.9 387.2,299.5 386,300.7C384.8,301.9 383.1,302.5 381.2,302.5C379.9,302.5 378.7,302.3 377.7,301.8C376.7,301.3 375.8,300.7 375.1,299.8C374.4,299 373.9,298 373.5,296.9C373.1,295.8 373,294.6 373,293.4C373,292.2 373.2,291 373.5,289.9C373.9,288.8 374.4,287.8 375.1,287C375.8,286.2 376.6,285.5 377.7,285C378.7,284.5 379.9,284.3 381.2,284.3C383,284.3 384.6,284.8 385.9,285.8C387.2,286.8 387.9,288.3 388.2,290.2L386.1,290.2C386,288.8 385.4,287.8 384.6,287.1M371.4,301.9L369.3,301.9L369.3,284.6L371.4,284.6L371.4,301.9ZM371.4,281.4L369.3,281.4L369.3,278L371.4,278L371.4,281.4ZM353.7,284.7L353.7,287.7L353.8,287.7C354.2,286.7 354.9,285.8 355.9,285.2C356.9,284.6 358.1,284.2 359.3,284.2C360.5,284.2 361.5,284.4 362.3,284.7C363.1,285 363.8,285.5 364.3,286C364.8,286.6 365.1,287.3 365.3,288.1C365.5,288.9 365.6,289.9 365.6,290.9L365.6,302L363.5,302L363.5,291.2C363.5,290.5 363.4,289.8 363.3,289.1C363.2,288.5 362.9,287.9 362.6,287.4C362.3,286.9 361.8,286.6 361.2,286.3C360.6,286 359.9,285.9 359.1,285.9C358.3,285.9 357.5,286 356.8,286.4C356.1,286.8 355.6,287.1 355.1,287.6C354.6,288.1 354.3,288.7 354,289.5C353.7,290.2 353.6,291 353.6,291.9L353.6,302L351.5,302L351.5,284.8L353.7,284.8L353.7,284.7ZM346,301.9L346,298.8C345.4,300 344.6,300.8 343.6,301.5C342.5,302.1 341.4,302.4 340.1,302.4C339,302.4 338.1,302.3 337.3,301.9C336.5,301.6 335.9,301.2 335.4,300.6C334.9,300 334.6,299.4 334.3,298.6C334.1,297.8 334,296.9 334,295.9L334,284.7L336.1,284.7L336.1,295.9C336.1,297.5 336.5,298.6 337.2,299.4C337.9,300.2 339.1,300.6 340.7,300.6C341.6,300.6 342.4,300.4 343,300C343.6,299.6 344.2,299.1 344.6,298.4C345,297.8 345.3,297 345.5,296.2C345.7,295.4 345.8,294.5 345.8,293.6L345.8,284.5L347.9,284.5L347.9,301.7L346,301.7L346,301.9ZM308.4,284.6L308.4,287.6L308.5,287.6C309.1,286.5 309.8,285.7 310.7,285.1C311.6,284.5 312.8,284.2 314.2,284.2C315.3,284.2 316.4,284.5 317.3,285C318.2,285.6 318.8,286.4 319.2,287.5C319.7,286.4 320.5,285.5 321.5,285C322.5,284.5 323.6,284.2 324.7,284.2C328.5,284.2 330.4,286.2 330.4,290.2L330.4,301.9L328.3,301.9L328.3,290.3C328.3,288.9 328,287.8 327.4,287C326.8,286.3 325.7,285.9 324.2,285.9C323.3,285.9 322.5,286.1 321.9,286.4C321.3,286.7 320.8,287.2 320.5,287.8C320.1,288.4 319.9,289 319.7,289.8C319.6,290.5 319.5,291.3 319.5,292.1L319.5,301.9L317.4,301.9L317.4,290.2C317.4,289.6 317.3,289.1 317.2,288.5C317.1,288 316.9,287.5 316.6,287.1C316.3,286.7 315.9,286.4 315.5,286.2C315,286 314.5,285.9 313.8,285.9C312.9,285.9 312.1,286.1 311.5,286.4C310.8,286.7 310.3,287.2 309.9,287.7C309.5,288.3 309.2,288.9 309,289.7C308.8,290.5 308.7,291.3 308.7,292.2L308.7,301.8L306.6,301.8L306.6,284.6L308.4,284.6ZM299,284.9C300,285.4 300.9,286 301.6,286.9C302.3,287.7 302.8,288.7 303.2,289.8C303.6,290.9 303.7,292.1 303.7,293.3C303.7,294.5 303.5,295.7 303.2,296.8C302.8,297.9 302.3,298.9 301.6,299.7C300.9,300.5 300.1,301.2 299,301.7C298,302.2 296.8,302.4 295.5,302.4C294.2,302.4 293,302.2 292,301.7C291,301.2 290.1,300.6 289.4,299.7C288.7,298.9 288.2,297.9 287.8,296.8C287.4,295.7 287.3,294.5 287.3,293.3C287.3,292.1 287.5,290.9 287.8,289.8C288.2,288.7 288.7,287.7 289.4,286.9C290.1,286.1 290.9,285.4 292,284.9C293.1,284.4 294.2,284.2 295.5,284.2C296.8,284.2 298,284.4 299,284.9M292.9,286.6C292.1,287 291.5,287.6 291,288.3C290.5,289 290.1,289.8 289.9,290.7C289.6,291.6 289.5,292.5 289.5,293.4C289.5,294.3 289.6,295.2 289.9,296.1C290.2,297 290.5,297.8 291,298.5C291.5,299.2 292.1,299.7 292.9,300.2C293.7,300.6 294.5,300.8 295.5,300.8C296.5,300.8 297.4,300.6 298.1,300.2C298.8,299.8 299.5,299.2 300,298.5C300.5,297.8 300.9,297 301.1,296.1C301.3,295.2 301.5,294.3 301.5,293.4C301.5,292.5 301.4,291.6 301.1,290.7C300.8,289.8 300.5,289 300,288.3C299.5,287.6 298.9,287.1 298.1,286.6C297.3,286.1 296.5,286 295.5,286C294.5,286 293.6,286.2 292.9,286.6M281.8,287.1C281,286.4 279.9,286 278.5,286C277.5,286 276.6,286.2 275.9,286.6C275.1,287 274.5,287.6 274,288.3C273.5,289 273.1,289.8 272.9,290.7C272.6,291.6 272.5,292.5 272.5,293.4C272.5,294.3 272.6,295.2 272.9,296.1C273.2,297 273.5,297.8 274,298.5C274.5,299.2 275.1,299.7 275.9,300.2C276.7,300.6 277.5,300.8 278.5,300.8C279.1,300.8 279.8,300.7 280.3,300.4C280.9,300.2 281.4,299.8 281.8,299.4C282.2,299 282.6,298.4 282.9,297.8C283.2,297.2 283.4,296.5 283.4,295.8L285.5,295.8C285.2,297.9 284.4,299.5 283.2,300.7C282,301.9 280.3,302.5 278.4,302.5C277.1,302.5 275.9,302.3 274.9,301.8C273.9,301.3 273,300.7 272.3,299.8C271.6,299 271.1,298 270.7,296.9C270.3,295.8 270.2,294.6 270.2,293.4C270.2,292.2 270.4,291 270.7,289.9C271.1,288.8 271.6,287.8 272.3,287C273,286.2 273.8,285.5 274.9,285C275.9,284.5 277.1,284.3 278.4,284.3C280.2,284.3 281.8,284.8 283.1,285.8C284.4,286.8 285.1,288.3 285.4,290.2L283.3,290.2C283.1,288.8 282.6,287.8 281.8,287.1" style="fill-rule:nonzero;"/>
    </g>
</svg>
