<?xml version="1.0" encoding="UTF-8" standalone="no"?>
<!DOCTYPE svg PUBLIC "-//W3C//DTD SVG 1.1//EN" "http://www.w3.org/Graphics/SVG/1.1/DTD/svg11.dtd">
<svg width="100%" height="100%" viewBox="0 0 309 42" version="1.1" xmlns="http://www.w3.org/2000/svg" xmlns:xlink="http://www.w3.org/1999/xlink" xml:space="preserve" xmlns:serif="http://www.serif.com/" style="fill-rule:evenodd;clip-rule:evenodd;stroke-miterlimit:3.864;">
    <g transform="matrix(1,0,0,1,-140.7,-420.5)">
        <path d="M140.7,436.4L140.7,457.3L149.7,452.1L158.8,446.9L149.7,441.6L140.7,436.4Z" style="fill:rgb(229,36,33);fill-rule:nonzero;"/>
    </g>
    <g transform="matrix(1,0,0,1,-140.7,-420.5)">
        <path d="M170.9,443.7C170.1,442.9 169.3,442 168.5,441.1C167.7,440.2 166.8,439.3 166.1,438.4C165.3,437.5 164.6,436.6 163.9,435.8C163.2,435 162.6,434.3 162.1,433.7L152.7,433.7C154.6,435.9 156.4,437.9 158.2,439.9C160,441.8 161.9,443.9 164,445.9C162.9,446.9 161.8,448 160.7,449.3C159.6,450.6 158.5,452 157.4,453.4C156.3,454.8 155.4,456.2 154.5,457.6C153.6,459 152.9,460.3 152.3,461.5L161.4,461.5C162,460.6 162.6,459.6 163.4,458.5C164.1,457.4 164.9,456.3 165.7,455.2C166.5,454.1 167.4,453 168.3,452C169.2,451 170.1,450.1 170.9,449.4L170.9,461.6L178.8,461.6L178.8,421.8L170.9,420.5L170.9,443.7Z" style="fill-rule:nonzero;"/>
    </g>
    <g transform="matrix(1,0,0,1,-140.7,-420.5)">
        <path d="M208.6,447.5C208.6,449.7 208.3,451.7 207.6,453.5C207,455.3 206,456.9 204.8,458.2C203.6,459.5 202.2,460.5 200.5,461.2C198.8,461.9 197,462.3 194.9,462.3C192.9,462.3 191,461.9 189.3,461.2C187.6,460.5 186.2,459.5 185,458.2C183.8,456.9 182.9,455.3 182.2,453.5C181.5,451.7 181.2,449.7 181.2,447.5C181.2,445.3 181.5,443.3 182.2,441.5C182.9,439.7 183.9,438.2 185.1,436.9C186.3,435.6 187.8,434.6 189.4,433.9C191.1,433.2 192.9,432.8 194.9,432.8C196.9,432.8 198.7,433.2 200.4,433.9C202.1,434.6 203.5,435.6 204.7,436.9C205.9,438.2 206.8,439.7 207.5,441.5C208.3,443.3 208.6,445.3 208.6,447.5M200.6,447.5C200.6,445.1 200.1,443.2 199.1,441.8C198.2,440.4 196.8,439.7 195,439.7C193.2,439.7 191.8,440.4 190.8,441.8C189.8,443.2 189.3,445.1 189.3,447.5C189.3,449.9 189.8,451.9 190.8,453.3C191.8,454.7 193.2,455.4 195,455.4C196.8,455.4 198.2,454.7 199.1,453.3C200.1,451.9 200.6,450 200.6,447.5" style="fill-rule:nonzero;"/>
    </g>
    <g transform="matrix(1,0,0,1,-140.7,-420.5)">
        <path d="M228.9,440.6C228.2,440.4 227.4,440.2 226.4,440.1C225.4,439.9 224.4,439.8 223.3,439.8C222.8,439.8 222.2,439.9 221.5,440C220.8,440.1 220.3,440.2 220,440.3L220,461.6L212.1,461.6L212.1,435.2C213.5,434.7 215.2,434.2 217.1,433.8C219,433.3 221.2,433.1 223.6,433.1C224,433.1 224.5,433.1 225.1,433.2C225.7,433.2 226.3,433.3 226.9,433.4C227.5,433.5 228.1,433.6 228.7,433.7C229.3,433.8 229.8,433.9 230.2,434.1L228.9,440.6Z" style="fill-rule:nonzero;"/>
    </g>
    <g transform="matrix(1,0,0,1,-140.7,-420.5)">
        <path d="M231.5,426.7L239.4,425.4L239.4,433.6L248.9,433.6L248.9,440.2L239.4,440.2L239.4,450C239.4,451.7 239.7,453 240.2,454C240.8,455 242,455.5 243.8,455.5C244.6,455.5 245.5,455.4 246.4,455.3C247.3,455.1 248.1,454.9 248.9,454.6L250,460.7C249,461.1 248,461.4 246.8,461.7C245.6,462 244.2,462.1 242.5,462.1C240.3,462.1 238.6,461.8 237.2,461.3C235.8,460.7 234.7,459.9 233.8,458.9C233,457.8 232.4,456.6 232,455.1C231.7,453.6 231.5,452 231.5,450.2L231.5,426.7Z" style="fill-rule:nonzero;"/>
    </g>
    <g transform="matrix(1,0,0,1,-140.7,-420.5)">
        <path d="M278.7,447.5C278.7,449.7 278.4,451.7 277.7,453.5C277.1,455.3 276.1,456.9 274.9,458.2C273.7,459.5 272.3,460.5 270.6,461.2C268.9,461.9 267.1,462.3 265,462.3C263,462.3 261.1,461.9 259.4,461.2C257.7,460.5 256.3,459.5 255.1,458.2C253.9,456.9 253,455.3 252.3,453.5C251.6,451.7 251.3,449.7 251.3,447.5C251.3,445.3 251.6,443.3 252.3,441.5C253,439.7 254,438.2 255.2,436.9C256.4,435.6 257.9,434.6 259.5,433.9C261.2,433.2 263,432.8 265,432.8C267,432.8 268.8,433.2 270.5,433.9C272.2,434.6 273.6,435.6 274.8,436.9C276,438.2 276.9,439.7 277.6,441.5C278.4,443.3 278.7,445.3 278.7,447.5M270.6,447.5C270.6,445.1 270.1,443.2 269.1,441.8C268.2,440.4 266.8,439.7 265,439.7C263.2,439.7 261.8,440.4 260.8,441.8C259.8,443.2 259.3,445.1 259.3,447.5C259.3,449.9 259.8,451.9 260.8,453.3C261.8,454.7 263.2,455.4 265,455.4C266.8,455.4 268.2,454.7 269.1,453.3C270.1,451.9 270.6,450 270.6,447.5" style="fill-rule:nonzero;"/>
    </g>
    <g transform="matrix(1,0,0,1,-140.7,-420.5)">
        <path d="M280.7,448.2C280.7,446.3 281,444.5 281.6,442.8C282.2,441.1 283.2,439.6 284.3,438.3C285.5,437 286.9,436 288.6,435.3C290.3,434.6 292.2,434.2 294.4,434.2C295.8,434.2 297.1,434.3 298.3,434.6C299.5,434.8 300.6,435.2 301.7,435.7L300.1,441.7C299.4,441.4 298.6,441.2 297.8,441C296.9,440.8 296,440.7 295,440.7C292.8,440.7 291.1,441.4 290,442.8C288.9,444.2 288.4,446 288.4,448.3C288.4,450.7 288.9,452.6 289.9,453.9C291,455.2 292.8,455.9 295.3,455.9C296.2,455.9 297.2,455.8 298.2,455.6C299.3,455.4 300.2,455.2 301.1,454.8L302.2,461C301.3,461.4 300.2,461.7 298.9,462C297.6,462.3 296.1,462.4 294.5,462.4C292.1,462.4 290,462 288.2,461.3C286.4,460.6 285,459.6 283.8,458.3C282.7,457 281.9,455.6 281.3,453.9C281,452 280.7,450.2 280.7,448.2" style="fill-rule:nonzero;"/>
    </g>
    <g transform="matrix(1,0,0,1,-140.7,-420.5)">
        <path d="M312.4,461.5L304.8,461.5L304.8,434.8L312.4,434.8L312.4,461.5ZM313.1,427.1C313.1,428.5 312.6,429.6 311.7,430.4C310.8,431.2 309.8,431.6 308.6,431.6C307.4,431.6 306.3,431.2 305.4,430.4C304.5,429.6 304.1,428.5 304.1,427.1C304.1,425.7 304.5,424.6 305.4,423.9C306.3,423.1 307.4,422.7 308.6,422.7C309.8,422.7 310.9,423.1 311.7,423.9C312.6,424.6 313.1,425.7 313.1,427.1" style="fill-rule:nonzero;"/>
    </g>
    <g transform="matrix(1,0,0,1,-140.7,-420.5)">
        <path d="M333,441.5C332.3,441.3 331.5,441.2 330.6,441C329.7,440.8 328.7,440.7 327.7,440.7C327.2,440.7 326.6,440.8 326,440.9C325.4,441 324.9,441.1 324.5,441.2L324.5,461.6L316.9,461.6L316.9,436.3C318.3,435.8 319.8,435.4 321.7,435C323.6,434.6 325.6,434.3 327.9,434.3C328.3,434.3 328.8,434.3 329.4,434.4C330,434.4 330.5,434.5 331.1,434.6C331.7,434.7 332.2,434.8 332.8,434.9C333.4,435 333.9,435.1 334.3,435.3L333,441.5Z" style="fill-rule:nonzero;"/>
    </g>
    <g transform="matrix(1,0,0,1,-140.7,-420.5)">
        <path d="M334.5,448.2C334.5,446.3 334.8,444.5 335.4,442.8C336,441.1 337,439.6 338.1,438.3C339.3,437 340.7,436 342.4,435.3C344.1,434.6 346,434.2 348.2,434.2C349.6,434.2 350.9,434.3 352.1,434.6C353.3,434.8 354.4,435.2 355.6,435.7L354,441.7C353.3,441.4 352.5,441.2 351.7,441C350.9,440.8 349.9,440.7 348.9,440.7C346.7,440.7 345,441.4 343.9,442.8C342.8,444.2 342.3,446 342.3,448.3C342.3,450.7 342.8,452.6 343.8,453.9C344.9,455.2 346.7,455.9 349.2,455.9C350.1,455.9 351.1,455.8 352.1,455.6C353.1,455.4 354.1,455.2 355,454.8L356.1,461C355.2,461.4 354.1,461.7 352.8,462C351.5,462.3 350,462.4 348.4,462.4C346,462.4 343.9,462 342.1,461.3C340.3,460.6 338.9,459.6 337.7,458.3C336.6,457 335.8,455.6 335.2,453.9C334.8,452 334.5,450.2 334.5,448.2" style="fill-rule:nonzero;"/>
    </g>
    <g transform="matrix(1,0,0,1,-140.7,-420.5)">
        <path d="M381.4,460.6C380.1,461 378.5,461.3 376.4,461.6C374.4,461.9 372.2,462.1 370,462.1C367.7,462.1 365.8,461.8 364.3,461.2C362.8,460.6 361.6,459.7 360.8,458.7C359.9,457.6 359.3,456.3 358.9,454.7C358.5,453.2 358.3,451.5 358.3,449.7L358.3,434.8L365.9,434.8L365.9,448.8C365.9,451.2 366.2,453 366.9,454.1C367.5,455.2 368.7,455.7 370.5,455.7L372.2,455.7C372.8,455.6 373.3,455.6 373.8,455.5L373.8,434.9L381.4,434.9L381.4,460.6Z" style="fill-rule:nonzero;"/>
    </g>
    <g transform="matrix(1,0,0,1,-140.7,-420.5)">
        <path d="M393.6,461.5L386,461.5L386,434.8L393.6,434.8L393.6,461.5ZM394.3,427.1C394.3,428.5 393.8,429.6 392.9,430.4C392,431.2 391,431.6 389.8,431.6C388.6,431.6 387.5,431.2 386.6,430.4C385.7,429.6 385.3,428.5 385.3,427.1C385.3,425.7 385.7,424.6 386.6,423.9C387.5,423.1 388.6,422.7 389.8,422.7C391,422.7 392.1,423.1 392.9,423.9C393.8,424.6 394.3,425.7 394.3,427.1" style="fill-rule:nonzero;"/>
    </g>
    <g transform="matrix(1,0,0,1,-140.7,-420.5)">
        <path d="M397.9,428.2L405.5,427L405.5,434.9L414.6,434.9L414.6,441.2L405.5,441.2L405.5,450.6C405.5,452.2 405.8,453.5 406.3,454.4C406.9,455.3 408,455.8 409.7,455.8C410.5,455.8 411.3,455.7 412.2,455.6C413.1,455.4 413.9,455.2 414.6,454.9L415.7,460.8C414.8,461.2 413.8,461.5 412.7,461.8C411.6,462.1 410.2,462.2 408.6,462.2C406.5,462.2 404.8,461.9 403.5,461.4C402.2,460.8 401.1,460 400.3,459.1C399.5,458.1 398.9,456.9 398.6,455.4C398.3,454 398.1,452.4 398.1,450.7L398.1,428.2L397.9,428.2Z" style="fill-rule:nonzero;"/>
    </g>
    <g transform="matrix(1,0,0,1,-140.7,-420.5)">
        <path d="M443.1,448.1C443.1,450.2 442.8,452.1 442.2,453.9C441.6,455.6 440.7,457.1 439.6,458.4C438.4,459.6 437.1,460.6 435.4,461.2C433.8,461.9 432,462.2 430,462.2C428,462.2 426.3,461.9 424.6,461.2C423,460.5 421.6,459.6 420.5,458.4C419.4,457.1 418.5,455.7 417.8,453.9C417.2,452.1 416.8,450.2 416.8,448.1C416.8,446 417.1,444.1 417.8,442.4C418.5,440.7 419.4,439.2 420.5,438C421.7,436.8 423.1,435.8 424.7,435.2C426.3,434.5 428.1,434.2 430,434.2C431.9,434.2 433.7,434.5 435.3,435.2C436.9,435.9 438.3,436.8 439.5,438C440.6,439.2 441.5,440.7 442.2,442.4C442.8,444.1 443.1,446 443.1,448.1M435.4,448.1C435.4,445.8 434.9,443.9 434,442.6C433.1,441.2 431.8,440.6 430,440.6C428.3,440.6 426.9,441.3 426,442.6C425.1,443.9 424.6,445.7 424.6,448.1C424.6,450.5 425.1,452.3 426,453.7C426.9,455.1 428.3,455.7 430,455.7C431.7,455.7 433,455 434,453.7C434.9,452.3 435.4,450.4 435.4,448.1" style="fill-rule:nonzero;"/>
    </g>
    <g transform="matrix(1,0,0,1,-140.7,-420.5)">
        <path d="M443.3,458.8C443.3,457.4 444.4,456.3 445.8,456.3C447.2,456.3 448.3,457.4 448.3,458.8C448.3,460.2 447.2,461.3 445.8,461.3C444.5,461.3 443.3,460.2 443.3,458.8Z" style="fill:none;fill-rule:nonzero;stroke:black;stroke-width:0.26px;"/>
    </g>
    <g transform="matrix(1,0,0,1,-140.7,-420.5)">
        <path d="M445.6,457.1C446.1,457.1 446.4,457.2 446.7,457.4C447,457.6 447.1,457.8 447.1,458.2C447.1,458.4 447.1,458.6 446.9,458.7C446.8,458.8 446.6,459 446.5,459C446.6,459.1 446.6,459.2 446.7,459.3C446.8,459.4 446.8,459.5 446.9,459.6C447,459.7 447,459.8 447.1,460C447.2,460.1 447.2,460.2 447.3,460.4L446.5,460.4C446.4,460.3 446.4,460.2 446.3,460.1C446.2,460 446.2,459.9 446.1,459.8C446,459.7 446,459.6 445.9,459.5C445.8,459.4 445.8,459.3 445.7,459.2L445.3,459.2L445.3,460.4L444.6,460.4L444.6,457.2C444.8,457.2 444.9,457.1 445.1,457.1L445.6,457.1M445.6,457.7L445.4,457.7L445.4,458.6L445.6,458.6C445.9,458.6 446.1,458.6 446.2,458.5C446.3,458.4 446.4,458.3 446.4,458.2C446.4,458 446.3,457.9 446.2,457.9C446,457.7 445.9,457.7 445.6,457.7" style="fill-rule:nonzero;"/>
    </g>
</svg>
