<?xml version="1.0" encoding="UTF-8" standalone="no"?>
<!DOCTYPE svg PUBLIC "-//W3C//DTD SVG 1.1//EN" "http://www.w3.org/Graphics/SVG/1.1/DTD/svg11.dtd">
<svg width="100%" height="100%" viewBox="0 0 345 35" version="1.1" xmlns="http://www.w3.org/2000/svg" xmlns:xlink="http://www.w3.org/1999/xlink" xml:space="preserve" xmlns:serif="http://www.serif.com/" style="fill-rule:evenodd;clip-rule:evenodd;stroke-miterlimit:3.864;">
    <g transform="matrix(1,0,0,1,-129.1,-344)">
        <path d="M129.1,354.6L129.1,377.2L135.7,377.2L135.7,363.2C135.7,362 135.9,361.1 136.2,360.4C136.5,359.7 136.9,359.1 137.4,358.7C137.9,358.3 138.4,358 138.9,357.9C139.4,357.7 139.9,357.7 140.2,357.7C141.3,357.7 142.1,357.9 142.6,358.3C143.2,358.6 143.6,359.1 143.8,359.7C144,360.3 144.2,360.9 144.2,361.7L144.2,377.3L150.8,377.3L150.8,363.8C150.8,363.1 150.9,362.3 150.9,361.6C151,360.9 151.2,360.2 151.6,359.6C151.9,359 152.4,358.5 153,358.2C153.6,357.8 154.4,357.6 155.3,357.6C156.2,357.6 157,357.8 157.5,358.1C158.1,358.4 158.5,358.8 158.8,359.4C159.1,359.9 159.3,360.6 159.3,361.3C159.4,362 159.4,362.8 159.4,363.6L159.4,377.3L166,377.3L166,361.1C166,359.5 165.8,358.2 165.3,357.1C164.9,356 164.3,355.1 163.5,354.4C162.7,353.7 161.8,353.2 160.7,352.9C159.6,352.6 158.4,352.4 157.1,352.4C155.4,352.4 154,352.8 152.7,353.6C151.5,354.4 150.5,355.3 149.8,356.4C149.1,354.9 148.2,353.9 146.9,353.3C145.7,352.7 144.3,352.4 142.7,352.4C141.1,352.4 139.7,352.7 138.5,353.4C137.3,354.1 136.2,355 135.4,356.3L135.3,356.3L135.3,354.6L129.1,354.6Z" style="fill-rule:nonzero;"/>
    </g>
    <g transform="matrix(1,0,0,1,-129.1,-344)">
        <path d="M129.1,354.6L129.1,377.2L135.7,377.2L135.7,363.2C135.7,362 135.9,361.1 136.2,360.4C136.5,359.7 136.9,359.1 137.4,358.7C137.9,358.3 138.4,358 138.9,357.9C139.4,357.7 139.9,357.7 140.2,357.7C141.3,357.7 142.1,357.9 142.6,358.3C143.2,358.6 143.6,359.1 143.8,359.7C144,360.3 144.2,360.9 144.2,361.7L144.2,377.3L150.8,377.3L150.8,363.8C150.8,363.1 150.9,362.3 150.9,361.6C151,360.9 151.2,360.2 151.6,359.6C151.9,359 152.4,358.5 153,358.2C153.6,357.8 154.4,357.6 155.3,357.6C156.2,357.6 157,357.8 157.5,358.1C158.1,358.4 158.5,358.8 158.8,359.4C159.1,359.9 159.3,360.6 159.3,361.3C159.4,362 159.4,362.8 159.4,363.6L159.4,377.3L166,377.3L166,361.1C166,359.5 165.8,358.2 165.3,357.1C164.9,356 164.3,355.1 163.5,354.4C162.7,353.7 161.8,353.2 160.7,352.9C159.6,352.6 158.4,352.4 157.1,352.4C155.4,352.4 154,352.8 152.7,353.6C151.5,354.4 150.5,355.3 149.8,356.4C149.1,354.9 148.2,353.9 146.9,353.3C145.7,352.7 144.3,352.4 142.7,352.4C141.1,352.4 139.7,352.7 138.5,353.4C137.3,354.1 136.2,355 135.4,356.3L135.3,356.3L135.3,354.6L129.1,354.6Z" style="fill-rule:nonzero;"/>
    </g>
    <g transform="matrix(1,0,0,1,-129.1,-344)">
        <path d="M185.5,362.6L174.7,362.6C174.7,362.1 174.8,361.6 175,361C175.2,360.4 175.5,359.8 175.9,359.3C176.3,358.8 176.9,358.3 177.6,358C178.3,357.6 179.2,357.4 180.3,357.4C181.9,357.4 183.1,357.8 183.9,358.7C184.6,359.7 185.1,361 185.5,362.6M174.7,366.8L192.1,366.8C192.2,364.9 192.1,363.1 191.6,361.4C191.2,359.7 190.5,358.2 189.5,356.8C188.5,355.5 187.3,354.4 185.8,353.6C184.3,352.8 182.5,352.4 180.4,352.4C178.6,352.4 176.9,352.7 175.4,353.4C173.9,354.1 172.6,355 171.5,356.1C170.4,357.2 169.6,358.6 169,360.1C168.4,361.7 168.1,363.3 168.1,365.1C168.1,367 168.4,368.7 168.9,370.2C169.5,371.8 170.3,373.1 171.4,374.2C172.5,375.3 173.7,376.2 175.3,376.8C176.8,377.4 178.5,377.7 180.4,377.7C183.1,377.7 185.5,377.1 187.4,375.8C189.3,374.6 190.8,372.5 191.7,369.6L185.9,369.6C185.7,370.3 185.1,371.1 184.1,371.7C183.1,372.4 182,372.7 180.6,372.7C178.7,372.7 177.3,372.2 176.3,371.3C175.3,370.6 174.8,369 174.7,366.8" style="fill-rule:nonzero;"/>
    </g>
    <g transform="matrix(1,0,0,1,-129.1,-344)">
        <path d="M211.7,365.2C211.7,366.2 211.6,367.2 211.4,368.1C211.2,369 210.9,369.9 210.5,370.6C210.1,371.3 209.5,371.9 208.7,372.3C208,372.7 207.1,373 206,373C205,373 204.1,372.8 203.3,372.3C202.6,371.8 202,371.2 201.5,370.5C201,369.8 200.7,368.9 200.5,368C200.3,367.1 200.2,366.1 200.2,365.2C200.2,364.2 200.3,363.3 200.5,362.4C200.7,361.5 201,360.6 201.5,359.9C202,359.2 202.6,358.6 203.3,358.2C204,357.8 205,357.5 206,357.5C207.1,357.5 208,357.7 208.7,358.2C209.4,358.6 210,359.2 210.4,359.9C210.9,360.6 211.2,361.4 211.4,362.3C211.6,363.2 211.7,364.2 211.7,365.2M211.8,374.2L211.8,377.3L218.1,377.3L218.1,344L211.5,344L211.5,356.1L211.4,356.1C210.7,354.9 209.6,354 208.3,353.4C207,352.8 205.7,352.5 204.2,352.5C202.4,352.5 200.9,352.9 199.5,353.6C198.2,354.3 197,355.2 196.1,356.4C195.2,357.6 194.6,358.9 194.1,360.4C193.7,361.9 193.4,363.4 193.4,365.1C193.4,366.8 193.6,368.4 194.1,370C194.6,371.6 195.2,372.9 196.1,374.2C197,375.4 198.1,376.3 199.5,377.1C200.9,377.8 202.5,378.1 204.3,378.1C205.9,378.1 207.3,377.8 208.5,377.3C209.9,376.5 211,375.5 211.8,374.2Z" style="fill-rule:nonzero;"/>
    </g>
    <g transform="matrix(1,0,0,1,-129.1,-344)">
        <path d="M221,377.3L227.6,377.3L227.6,353.2L221,353.2L221,377.3ZM221,349.4L227.6,349.4L227.6,344L221,344L221,349.4Z" style="fill-rule:nonzero;"/>
    </g>
    <g transform="matrix(1,0,0,1,-129.1,-344)">
        <path d="M230.2,360.6L236.8,360.6C236.9,359.3 237.4,358.4 238.1,357.8C238.8,357.2 239.9,357 241.2,357C241.8,357 242.3,357 242.8,357.1C243.3,357.2 243.8,357.3 244.2,357.6C244.6,357.8 244.9,358.1 245.1,358.6C245.3,359 245.5,359.6 245.5,360.3C245.5,361 245.3,361.5 244.9,361.9C244.5,362.2 243.9,362.5 243.1,362.7C242.4,362.9 241.5,363 240.5,363.1C239.5,363.2 238.6,363.3 237.6,363.5C236.6,363.7 235.6,363.9 234.6,364.2C233.6,364.4 232.8,364.8 232,365.4C231.3,365.9 230.6,366.6 230.1,367.5C229.6,368.4 229.4,369.5 229.4,370.9C229.4,372.1 229.6,373.2 230,374.1C230.4,375 231,375.8 231.8,376.3C232.5,376.9 233.4,377.3 234.4,377.6C235.4,377.9 236.5,378 237.6,378C239.1,378 240.6,377.8 242,377.3C243.4,376.9 244.7,376.1 245.7,375C245.7,375.4 245.8,375.8 245.8,376.2C245.9,376.6 246,376.9 246.1,377.3L252.8,377.3C252.5,376.8 252.3,376.1 252.1,375.1C252,374.1 251.9,373.1 251.9,372L251.9,359.4C251.9,357.9 251.6,356.8 250.9,355.9C250.2,355 249.4,354.3 248.4,353.8C247.4,353.3 246.2,353 245,352.8C243.8,352.6 242.5,352.5 241.3,352.5C240,352.5 238.6,352.6 237.3,352.9C236,353.1 234.8,353.6 233.8,354.2C232.7,354.8 231.9,355.6 231.2,356.7C230.7,357.7 230.3,359 230.2,360.6M245.6,365.5L245.6,368C245.6,368.4 245.6,368.9 245.5,369.5C245.4,370.1 245.2,370.7 244.9,371.4C244.6,372 244,372.5 243.3,372.9C242.6,373.3 241.6,373.6 240.3,373.6C239.8,373.6 239.3,373.6 238.8,373.5C238.3,373.4 237.9,373.3 237.5,373C237.1,372.8 236.8,372.4 236.6,372C236.4,371.6 236.3,371.1 236.3,370.5C236.3,369.9 236.4,369.4 236.6,369C236.8,368.6 237.1,368.3 237.4,368C237.8,367.7 238.2,367.5 238.7,367.3C239.2,367.1 239.7,367 240.2,366.9C240.7,366.8 241.3,366.7 241.8,366.7C242.3,366.6 242.8,366.6 243.3,366.5C243.8,366.4 244.3,366.3 244.7,366.2C244.9,365.9 245.3,365.7 245.6,365.5" style="fill-rule:nonzero;"/>
    </g>
    <g transform="matrix(1,0,0,1,-129.1,-344)">
        <path d="M263.4,353.2L263.4,346L256.8,346L256.8,353.2L252.8,353.2L252.8,357.6L256.8,357.6L256.8,371.8C256.8,373 257,374 257.4,374.7C257.8,375.4 258.3,376 259,376.4C259.7,376.8 260.5,377.1 261.4,377.2C262.3,377.4 263.3,377.4 264.3,377.4L266.3,377.4C267,377.4 267.6,377.3 268.2,377.2L268.2,372.1C267.9,372.2 267.6,372.2 267.2,372.2L266.1,372.2C265,372.2 264.2,372 263.9,371.6C263.5,371.2 263.3,370.5 263.3,369.4L263.3,357.4L268.2,357.4L268.2,353L263.4,353L263.4,353.2Z" style="fill-rule:nonzero;"/>
    </g>
    <g transform="matrix(1,0,0,1,-129.1,-344)">
        <path d="M270.2,377.3L276.8,377.3L276.8,353.2L270.2,353.2L270.2,377.3ZM270.2,349.4L276.8,349.4L276.8,344L270.2,344L270.2,349.4Z" style="fill-rule:nonzero;"/>
    </g>
    <g transform="matrix(1,0,0,1,-129.1,-344)">
        <path d="M296.2,361.7L302.7,361.7C302.6,360.1 302.2,358.8 301.6,357.7C300.9,356.5 300.1,355.6 299,354.9C298,354.1 296.8,353.5 295.5,353.2C294.2,352.8 292.8,352.6 291.4,352.6C289.4,352.6 287.7,352.9 286.2,353.6C284.7,354.3 283.4,355.2 282.3,356.4C281.2,357.6 280.4,358.9 279.9,360.6C279.4,362.2 279.1,363.9 279.1,365.8C279.1,367.6 279.4,369.3 280,370.8C280.6,372.3 281.4,373.6 282.5,374.7C283.6,375.8 284.8,376.6 286.3,377.3C287.8,377.9 289.5,378.2 291.3,378.2C294.5,378.2 297.1,377.4 299.2,375.7C301.3,374 302.5,371.6 302.9,368.4L296.5,368.4C296.3,369.9 295.7,371.1 294.9,372C294.1,372.9 292.8,373.3 291.3,373.3C290.3,373.3 289.4,373.1 288.7,372.6C288,372.1 287.4,371.5 287,370.8C286.6,370.1 286.3,369.2 286.1,368.3C285.9,367.4 285.8,366.5 285.8,365.6C285.8,364.7 285.9,363.8 286.1,362.9C286.3,362 286.6,361.1 287,360.4C287.5,359.6 288.1,359 288.8,358.5C289.5,358 290.4,357.8 291.5,357.8C294.1,357.5 295.7,358.9 296.2,361.7" style="fill-rule:nonzero;"/>
    </g>
    <g transform="matrix(1,0,0,1,-129.1,-344)">
        <path d="M303.9,360.6L310.5,360.6C310.6,359.3 311.1,358.4 311.8,357.8C312.5,357.2 313.6,357 314.9,357C315.5,357 316,357 316.5,357.1C317,357.2 317.5,357.3 317.9,357.6C318.3,357.8 318.6,358.1 318.8,358.6C319,359 319.2,359.6 319.2,360.3C319.2,361 319,361.5 318.6,361.9C318.2,362.2 317.6,362.5 316.8,362.7C316.1,362.9 315.2,363 314.2,363.1C313.2,363.2 312.3,363.3 311.3,363.5C310.3,363.7 309.3,363.9 308.3,364.2C307.3,364.4 306.5,364.8 305.7,365.4C305,365.9 304.3,366.6 303.8,367.5C303.3,368.4 303.1,369.5 303.1,370.9C303.1,372.1 303.3,373.2 303.7,374.1C304.1,375 304.7,375.8 305.5,376.3C306.2,376.9 307.1,377.3 308.1,377.6C309.1,377.9 310.2,378 311.3,378C312.8,378 314.3,377.8 315.7,377.3C317.1,376.9 318.4,376.1 319.4,375C319.4,375.4 319.5,375.8 319.5,376.2C319.6,376.6 319.7,376.9 319.8,377.3L326.5,377.3C326.2,376.8 326,376.1 325.8,375.1C325.7,374.1 325.6,373.1 325.6,372L325.6,359.4C325.6,357.9 325.3,356.8 324.6,355.9C323.9,355 323.1,354.3 322.1,353.8C321.1,353.3 319.9,353 318.7,352.8C317.4,352.6 316.2,352.5 315,352.5C313.7,352.5 312.3,352.6 311,352.9C309.7,353.1 308.5,353.6 307.5,354.2C306.4,354.8 305.6,355.6 304.9,356.7C304.4,357.7 304,359 303.9,360.6M319.2,365.5L319.2,368C319.2,368.4 319.2,368.9 319.1,369.5C319,370.1 318.8,370.7 318.5,371.4C318.2,372 317.6,372.5 316.9,372.9C316.2,373.3 315.2,373.6 313.9,373.6C313.4,373.6 312.9,373.6 312.4,373.5C311.9,373.4 311.5,373.3 311.1,373C310.7,372.8 310.4,372.4 310.2,372C310,371.6 309.9,371.1 309.9,370.5C309.9,369.9 310,369.4 310.2,369C310.4,368.6 310.7,368.3 311,368C311.4,367.7 311.8,367.5 312.3,367.3C312.8,367.1 313.3,367 313.8,366.9C314.3,366.8 314.9,366.7 315.4,366.7C315.9,366.6 316.4,366.6 316.9,366.5C317.4,366.4 317.9,366.3 318.3,366.2C318.6,365.9 319,365.7 319.2,365.5" style="fill-rule:nonzero;"/>
    </g>
    <g transform="matrix(1,0,0,1,-129.1,-344)">
        <path d="M332.1,354.1L332.1,377.3L334.9,377.3L334.9,363.8C334.9,362.7 335.1,361.6 335.4,360.7C335.8,359.7 336.2,358.9 336.8,358.2C337.4,357.5 338.2,356.9 339,356.5C339.9,356.1 340.9,355.9 342,355.9C343.1,355.9 344.1,356.1 344.8,356.4C345.6,356.8 346.2,357.2 346.6,357.9C347.1,358.5 347.4,359.3 347.5,360.1C347.7,360.9 347.8,361.8 347.8,362.8L347.8,377.2L350.6,377.2L350.6,362.3C350.6,360.9 350.5,359.7 350.2,358.6C349.9,357.5 349.5,356.6 348.8,355.8C348.1,355 347.3,354.4 346.2,354C345.1,353.6 343.8,353.4 342.2,353.4C340.6,353.4 339.1,353.8 337.7,354.7C336.3,355.5 335.4,356.7 334.8,358.1L334.7,358.1L334.7,354.1L332.1,354.1Z" style="fill-rule:nonzero;"/>
    </g>
    <g transform="matrix(1,0,0,1,-129.1,-344)">
        <path d="M371,364.2L356,364.2C356.1,363.2 356.4,362.1 356.7,361.2C357.1,360.2 357.6,359.3 358.2,358.6C358.8,357.8 359.6,357.2 360.5,356.8C361.4,356.3 362.4,356.1 363.6,356.1C364.7,356.1 365.7,356.3 366.6,356.8C367.5,357.2 368.3,357.9 368.9,358.6C369.5,359.3 370,360.2 370.3,361.2C370.7,362 370.9,363.1 371,364.2M356,366.5L373.8,366.5C373.9,364.9 373.7,363.3 373.4,361.8C373,360.2 372.4,358.8 371.6,357.6C370.8,356.4 369.7,355.4 368.4,354.6C367.1,353.9 365.5,353.5 363.7,353.5C361.9,353.5 360.3,353.9 359,354.6C357.7,355.3 356.6,356.2 355.8,357.4C355,358.5 354.3,359.8 353.9,361.3C353.5,362.8 353.3,364.3 353.3,365.8C353.3,367.4 353.5,369 353.9,370.5C354.3,372 354.9,373.3 355.8,374.4C356.6,375.5 357.7,376.4 359,377C360.3,377.6 361.9,377.9 363.7,377.9C366.6,377.9 368.9,377.2 370.5,375.8C372.1,374.4 373.2,372.3 373.8,369.7L371,369.7C370.6,371.5 369.8,372.9 368.6,374C367.4,375.1 365.8,375.6 363.8,375.6C362.5,375.6 361.3,375.3 360.4,374.7C359.4,374.1 358.7,373.4 358,372.6C357.4,371.7 356.9,370.8 356.6,369.7C356.1,368.6 356,367.5 356,366.5" style="fill-rule:nonzero;"/>
    </g>
    <g transform="matrix(1,0,0,1,-129.1,-344)">
        <path d="M380.3,354.3L380.3,347.3L377.5,347.3L377.5,354.2L373.5,354.2L373.5,356.6L377.5,356.6L377.5,372.4C377.5,374.4 377.8,375.7 378.6,376.5C379.3,377.2 380.7,377.6 382.5,377.6L385.1,377.6L385.1,375.2C384.3,375.3 383.5,375.3 382.7,375.3C381.7,375.2 381,375 380.8,374.5C380.6,374 380.4,373.2 380.4,372.3L380.4,356.7L385.1,356.7L385.1,354.3L380.3,354.3Z" style="fill-rule:nonzero;"/>
    </g>
    <g transform="matrix(1,0,0,1,-129.1,-344)">
        <path d="M414.4,354.2L408.5,374L408.4,374L402.7,354.2L399.6,354.2L393.9,374L393.8,374L387.9,354.2L384.9,354.2L392.4,377.3L395.4,377.3L401.1,357.9L401.2,357.9L406.9,377.3L409.9,377.3L417.4,354.2L414.4,354.2Z" style="fill-rule:nonzero;"/>
    </g>
    <g transform="matrix(1,0,0,1,-129.1,-344)">
        <path d="M428.4,355.9C429.7,355.9 430.9,356.2 431.9,356.8C432.9,357.4 433.7,358.1 434.4,359C435.1,359.9 435.6,361 435.9,362.2C436.3,363.4 436.4,364.6 436.4,365.8C436.4,367 436.2,368.2 435.9,369.4C435.6,370.6 435.1,371.6 434.4,372.5C433.7,373.4 432.9,374.2 431.9,374.7C430.9,375.3 429.7,375.6 428.4,375.6C427.1,375.6 425.9,375.3 424.9,374.7C423.9,374.1 423,373.4 422.3,372.5C421.6,371.6 421.1,370.5 420.8,369.4C420.5,368.2 420.3,367 420.3,365.8C420.3,364.6 420.5,363.4 420.8,362.2C421.2,361 421.7,359.9 422.3,359C423,358.1 423.8,357.3 424.9,356.8C425.9,356.2 427,355.9 428.4,355.9M428.4,353.5C426.6,353.5 425.1,353.8 423.7,354.5C422.4,355.2 421.2,356 420.3,357.1C419.4,358.2 418.7,359.5 418.2,361C417.7,362.5 417.5,364 417.5,365.7C417.5,367.4 417.7,369 418.2,370.4C418.7,371.9 419.4,373.1 420.3,374.2C421.2,375.3 422.4,376.2 423.7,376.8C425.1,377.4 426.6,377.7 428.4,377.7C430.2,377.7 431.7,377.4 433.1,376.8C434.5,376.1 435.6,375.3 436.6,374.2C437.5,373.1 438.2,371.8 438.7,370.4C439.2,368.9 439.4,367.3 439.4,365.7C439.4,364 439.2,362.5 438.7,361C438.2,359.5 437.5,358.2 436.6,357.1C435.7,356 434.5,355.1 433.1,354.5C431.7,353.9 430.1,353.5 428.4,353.5" style="fill-rule:nonzero;"/>
    </g>
    <g transform="matrix(1,0,0,1,-129.1,-344)">
        <path d="M441.7,354.2L441.7,377.3L444.5,377.3L444.5,365C444.5,363.8 444.7,362.7 445.1,361.6C445.5,360.6 446.1,359.7 446.8,358.9C447.6,358.2 448.5,357.6 449.5,357.2C450.5,356.8 451.7,356.6 453,356.7L453,353.9C450.9,353.8 449.1,354.3 447.6,355.3C446.1,356.3 445,357.8 444.3,359.6L444.2,359.6L444.2,354.2L441.7,354.2Z" style="fill-rule:nonzero;"/>
    </g>
    <g transform="matrix(1,0,0,1,-129.1,-344)">
        <path d="M454,345.4L454,377.3L456.8,377.3L456.8,368.5L461.4,364.7L470.5,377.3L474.1,377.3L463.6,362.8L473.4,354.2L469.6,354.2L456.8,365.4L456.8,345.4L454,345.4Z" style="fill-rule:nonzero;"/>
    </g>
    <g transform="matrix(1,0,0,1,-129.1,-344)">
        <path d="M324.1,350C324.1,348.2 325.6,346.7 327.4,346.7C329.2,346.7 330.7,348.2 330.7,350C330.7,351.8 329.2,353.3 327.4,353.3C325.5,353.3 324.1,351.9 324.1,350Z" style="fill:none;fill-rule:nonzero;stroke:black;stroke-width:0.16px;"/>
    </g>
    <g transform="matrix(1,0,0,1,-129.1,-344)">
        <path d="M325.9,347.9L325.9,352.1L326.5,352.1L326.5,350.3L327.8,350.3C327.9,350.3 328,350.3 328.1,350.4C328.2,350.4 328.2,350.5 328.3,350.6C328.3,350.7 328.4,350.7 328.4,350.8C328.4,350.9 328.4,351 328.5,351.1L328.5,351.9C328.5,352 328.5,352 328.6,352.1L329.2,352.1C329.1,352 329.1,351.9 329.1,351.9C329.1,351.8 329,351.7 329,351.6L329,350.7C329,350.6 328.9,350.5 328.9,350.4C328.9,350.3 328.8,350.3 328.7,350.2C328.6,350.1 328.5,350.1 328.4,350.1C328.7,350 328.8,349.9 328.9,349.7C329,349.5 329.1,349.3 329.1,349C329.1,348.7 329,348.4 328.8,348.2C328.6,348 328.3,347.9 327.9,347.9L325.9,347.9ZM327.6,349.9L326.4,349.9L326.4,348.5L327.8,348.5C328.1,348.5 328.2,348.6 328.4,348.7C328.5,348.8 328.6,349 328.6,349.2C328.6,349.4 328.6,349.5 328.5,349.6C328.5,349.7 328.4,349.8 328.3,349.8C328.2,349.9 328.1,349.9 328,349.9C327.8,349.8 327.7,349.9 327.6,349.9" style="fill-rule:nonzero;"/>
    </g>
</svg>
