<?xml version="1.0" encoding="UTF-8" standalone="no"?>
<!DOCTYPE svg PUBLIC "-//W3C//DTD SVG 1.1//EN" "http://www.w3.org/Graphics/SVG/1.1/DTD/svg11.dtd">
<svg width="100%" height="100%" viewBox="0 0 1250 271" version="1.1" xmlns="http://www.w3.org/2000/svg" xmlns:xlink="http://www.w3.org/1999/xlink" xml:space="preserve" xmlns:serif="http://www.serif.com/" style="fill-rule:evenodd;clip-rule:evenodd;stroke-linejoin:round;stroke-miterlimit:2;">
    <g transform="matrix(1.30403,0,0,1.30403,-143.077,-79.4846)">
        <g transform="matrix(3.56346,0,0,3.56346,-80.3881,-25.9475)">
            <g transform="matrix(100,0,0,100,60.6267,81.6358)">
                <path d="M0.356,-0.48L0.356,-0.187C0.356,-0.112 0.313,-0.06 0.241,-0.06C0.168,-0.06 0.126,-0.112 0.126,-0.187L0.126,-0.48L0.057,-0.48L0.057,-0.21C0.057,-0.082 0.112,0.009 0.241,0.009C0.368,0.009 0.425,-0.082 0.425,-0.21L0.425,-0.48L0.356,-0.48Z" style="fill:rgb(140,140,140);fill-rule:nonzero;"/>
            </g>
            <g transform="matrix(100,0,0,100,108.927,81.6358)">
                <path d="M0.064,0.003L0.133,0.003L0.133,-0.269L0.064,-0.338L0.064,0.003ZM0.398,-0.48L0.398,-0.149L0.064,-0.492L0.064,-0.396L0.467,0.015L0.467,-0.48L0.398,-0.48Z" style="fill:rgb(140,140,140);fill-rule:nonzero;"/>
            </g>
            <g transform="matrix(100,0,0,100,162.127,81.6358)">
                <rect x="0.065" y="-0.48" width="0.069" height="0.483" style="fill:rgb(140,140,140);"/>
            </g>
            <g transform="matrix(-0.000263093,0.346502,-0.244068,-0.000185317,97.4416,11.2794)">
                <path d="M135.163,79.325L176.262,161.523L94.064,161.523L135.163,79.325Z" style="fill:rgb(222,0,0);"/>
            </g>
        </g>
        <g transform="matrix(3.22497,0,0,3.22497,-16.3388,2.38679)">
            <g transform="matrix(100,0,0,100,182.127,81.6358)">
                <path d="M0.339,-0.223C0.432,-0.248 0.485,-0.327 0.485,-0.423C0.485,-0.541 0.41,-0.622 0.248,-0.622L0.055,-0.622L0.055,-0.533L0.278,-0.533C0.343,-0.533 0.396,-0.499 0.396,-0.418C0.396,-0.337 0.341,-0.304 0.276,-0.304L0.055,-0.304L0.055,-0L0.144,-0L0.144,-0.215L0.241,-0.215L0.396,-0L0.499,-0L0.339,-0.223Z" style="fill:rgb(13,13,13);fill-rule:nonzero;"/>
            </g>
            <g transform="matrix(100,0,0,100,235.727,81.6358)">
                <path d="M0.03,-0.622L0.03,-0.533L0.386,-0.533L0.386,-0.622L0.03,-0.622ZM0.341,-0.267L0.341,-0.354L0.03,-0.354L0.03,-0.267L0.341,-0.267ZM0.386,-0.089L0.03,-0.089L0.03,-0L0.386,-0L0.386,-0.089Z" style="fill:rgb(13,13,13);fill-rule:nonzero;"/>
            </g>
            <g transform="matrix(100,0,0,100,276.827,81.6358)">
                <path d="M0.288,-0.363C0.19,-0.382 0.147,-0.405 0.147,-0.453C0.147,-0.508 0.195,-0.541 0.281,-0.541C0.358,-0.541 0.408,-0.506 0.441,-0.475L0.483,-0.556C0.406,-0.627 0.308,-0.63 0.282,-0.63C0.137,-0.63 0.058,-0.55 0.058,-0.449C0.058,-0.366 0.107,-0.304 0.281,-0.274C0.366,-0.259 0.422,-0.229 0.422,-0.179C0.422,-0.119 0.371,-0.081 0.278,-0.081C0.205,-0.081 0.133,-0.116 0.081,-0.173L0.037,-0.094C0.046,-0.082 0.126,0.007 0.276,0.007C0.421,0.007 0.511,-0.074 0.511,-0.182C0.511,-0.287 0.436,-0.334 0.288,-0.363Z" style="fill:rgb(13,13,13);fill-rule:nonzero;"/>
            </g>
        </g>
    </g>
</svg>
